<svg width="1440" height="930" viewBox="0 0 1440 930" fill="none" xmlns="http://www.w3.org/2000/svg">
<rect x="683" y="197" width="757" height="557" fill="black"/>
<rect y="377" width="829" height="465" fill="#DCDCDC"/>
<path d="M334.141 175.742V180H306.523V175.742H309.883C311.263 175.742 312.292 175.391 312.969 174.688C313.646 173.958 313.984 172.578 313.984 170.547V132.344C313.984 130.312 313.646 128.945 312.969 128.242C312.292 127.513 311.263 127.148 309.883 127.148H306.523V122.891H334.141V127.148H330.781C329.427 127.148 328.398 127.5 327.695 128.203C327.018 128.906 326.68 130.286 326.68 132.344V170.547C326.68 172.604 327.018 173.984 327.695 174.688C328.398 175.391 329.427 175.742 330.781 175.742H334.141ZM387.695 175.742V180H369.922V153.672C369.922 150.443 369.466 147.839 368.555 145.859C367.669 143.88 365.99 142.891 363.516 142.891C361.745 142.891 360.352 143.477 359.336 144.648C358.32 145.82 357.604 147.357 357.188 149.258C356.771 151.133 356.562 153.138 356.562 155.273V170.547C356.562 172.682 357.057 174.089 358.047 174.766C359.036 175.417 360.469 175.742 362.344 175.742H362.578V180H338.008V175.742H338.164C340.143 175.742 341.68 175.404 342.773 174.727C343.867 174.023 344.414 172.526 344.414 170.234V146.562C344.414 144.401 343.919 142.995 342.93 142.344C341.94 141.693 340.508 141.367 338.633 141.367H338.398V137.109H355.195L356.25 142.812H356.641C358.177 139.948 359.909 138.112 361.836 137.305C363.789 136.497 366.133 136.094 368.867 136.094C370.924 136.094 372.773 136.393 374.414 136.992C376.081 137.591 377.474 138.516 378.594 139.766C379.74 141.016 380.599 142.617 381.172 144.57C381.771 146.497 382.07 148.815 382.07 151.523V170.078C382.07 172.396 382.474 173.919 383.281 174.648C384.115 175.378 385.508 175.742 387.461 175.742H387.695ZM441.055 175.742V180H423.281V153.672C423.281 150.443 422.826 147.839 421.914 145.859C421.029 143.88 419.349 142.891 416.875 142.891C415.104 142.891 413.711 143.477 412.695 144.648C411.68 145.82 410.964 147.357 410.547 149.258C410.13 151.133 409.922 153.138 409.922 155.273V170.547C409.922 172.682 410.417 174.089 411.406 174.766C412.396 175.417 413.828 175.742 415.703 175.742H415.938V180H391.367V175.742H391.523C393.503 175.742 395.039 175.404 396.133 174.727C397.227 174.023 397.773 172.526 397.773 170.234V146.562C397.773 144.401 397.279 142.995 396.289 142.344C395.299 141.693 393.867 141.367 391.992 141.367H391.758V137.109H408.555L409.609 142.812H410C411.536 139.948 413.268 138.112 415.195 137.305C417.148 136.497 419.492 136.094 422.227 136.094C424.284 136.094 426.133 136.393 427.773 136.992C429.44 137.591 430.833 138.516 431.953 139.766C433.099 141.016 433.958 142.617 434.531 144.57C435.13 146.497 435.43 148.815 435.43 151.523V170.078C435.43 172.396 435.833 173.919 436.641 174.648C437.474 175.378 438.867 175.742 440.82 175.742H441.055ZM488.398 158.398C488.398 165.924 486.628 171.536 483.086 175.234C479.57 178.932 474.388 180.781 467.539 180.781C461.003 180.781 455.964 178.932 452.422 175.234C450.625 173.385 449.245 171.055 448.281 168.242C447.344 165.43 446.875 162.148 446.875 158.398C446.875 150.872 448.633 145.273 452.148 141.602C455.69 137.93 460.898 136.094 467.773 136.094C474.284 136.094 479.323 137.93 482.891 141.602C484.661 143.451 486.016 145.781 486.953 148.594C487.917 151.38 488.398 154.648 488.398 158.398ZM459.297 158.398C459.297 161.237 459.453 163.737 459.766 165.898C460.078 168.06 460.56 169.87 461.211 171.328C462.539 174.271 464.701 175.742 467.695 175.742C470.69 175.742 472.852 174.271 474.18 171.328C474.857 169.87 475.326 168.06 475.586 165.898C475.872 163.737 476.016 161.237 476.016 158.398C476.016 155.534 475.872 153.034 475.586 150.898C475.299 148.737 474.818 146.94 474.141 145.508C472.812 142.643 470.638 141.211 467.617 141.211C464.596 141.211 462.435 142.643 461.133 145.508C460.482 146.94 460.013 148.737 459.727 150.898C459.44 153.034 459.297 155.534 459.297 158.398ZM523.086 137.109H540.664V141.367H539.062C537.76 141.367 536.771 141.797 536.094 142.656C535.417 143.49 534.674 145 533.867 147.188L522.266 180H511.719L498.594 145.195C498.021 143.659 497.24 142.643 496.25 142.148C495.26 141.628 493.906 141.367 492.188 141.367V137.109H516.992V141.367H513.633C511.862 141.367 510.977 142.214 510.977 143.906C510.977 144.557 511.055 145.195 511.211 145.82C511.393 146.445 511.562 146.979 511.719 147.422L517.07 162.578C517.721 164.271 518.281 165.977 518.75 167.695C519.245 169.414 519.622 170.951 519.883 172.305C520.013 171.732 520.234 170.885 520.547 169.766C520.859 168.62 521.172 167.513 521.484 166.445C521.823 165.352 522.057 164.583 522.188 164.141L527.617 148.086C527.878 147.357 528.086 146.628 528.242 145.898C528.424 145.143 528.516 144.401 528.516 143.672C528.516 142.786 528.216 142.188 527.617 141.875C527.044 141.536 526.302 141.367 525.391 141.367H523.086V137.109ZM563.828 140.977C561.745 140.977 560.326 141.81 559.57 143.477C558.841 145.117 558.477 147.161 558.477 149.609C554.883 149.609 552.174 149.206 550.352 148.398C548.555 147.591 547.656 146.211 547.656 144.258C547.656 142.799 548.086 141.549 548.945 140.508C549.831 139.466 551.029 138.62 552.539 137.969C554.023 137.318 555.755 136.849 557.734 136.562C559.74 136.25 561.875 136.094 564.141 136.094C566.953 136.094 569.401 136.341 571.484 136.836C573.594 137.305 575.352 138.073 576.758 139.141C579.544 141.302 580.938 144.818 580.938 149.688V170.078C580.938 172.188 581.276 173.659 581.953 174.492C582.656 175.326 583.919 175.742 585.742 175.742H586.055V180H571.172L569.492 174.492H568.789C567.565 175.951 566.419 177.148 565.352 178.086C564.31 179.023 563.138 179.701 561.836 180.117C560.534 180.56 558.88 180.781 556.875 180.781C555.104 180.781 553.464 180.521 551.953 180C550.443 179.479 549.115 178.672 547.969 177.578C546.849 176.51 545.951 175.169 545.273 173.555C544.622 171.914 544.297 169.987 544.297 167.773C544.297 163.424 545.781 160.208 548.75 158.125C551.745 156.042 556.237 154.909 562.227 154.727L568.789 154.492V150.078C568.789 147.422 568.516 145.247 567.969 143.555C567.422 141.836 566.042 140.977 563.828 140.977ZM556.719 168.086C556.719 172.669 558.229 174.961 561.25 174.961C563.646 174.961 565.495 173.997 566.797 172.07C568.125 170.143 568.789 167.695 568.789 164.727V158.711L565.195 158.945C562.096 159.102 559.909 159.935 558.633 161.445C557.357 162.93 556.719 165.143 556.719 168.086ZM613.789 174.336C614.831 174.336 615.82 174.271 616.758 174.141C617.721 173.984 618.62 173.802 619.453 173.594V178.789C618.411 179.284 616.849 179.74 614.766 180.156C612.708 180.573 610.495 180.781 608.125 180.781C606.328 180.781 604.701 180.56 603.242 180.117C601.784 179.701 600.547 178.984 599.531 177.969C598.516 176.979 597.734 175.69 597.188 174.102C596.641 172.487 596.367 170.508 596.367 168.164V142.578H590.352V138.477C592.07 138.477 593.607 138.138 594.961 137.461C596.315 136.784 597.396 136.003 598.203 135.117C599.818 133.424 601.042 130.781 601.875 127.188H608.516V137.109H618.75V142.578H608.516V167.344C608.516 169.766 608.919 171.536 609.727 172.656C610.56 173.776 611.914 174.336 613.789 174.336ZM627.969 124.141C627.969 122.161 628.607 120.716 629.883 119.805C631.185 118.867 632.812 118.398 634.766 118.398C636.667 118.398 638.281 118.867 639.609 119.805C640.964 120.716 641.641 122.161 641.641 124.141C641.641 126.068 640.964 127.513 639.609 128.477C638.255 129.44 636.641 129.922 634.766 129.922C632.812 129.922 631.185 129.44 629.883 128.477C628.607 127.513 627.969 126.068 627.969 124.141ZM622.461 180V175.742H623.398C624.857 175.742 626.172 175.391 627.344 174.688C628.516 173.984 629.102 172.604 629.102 170.547V146.25C629.102 144.297 628.503 142.995 627.305 142.344C626.107 141.693 624.805 141.367 623.398 141.367H622.461V137.109H641.25V170.547C641.25 172.604 641.836 173.984 643.008 174.688C644.206 175.391 645.521 175.742 646.953 175.742H647.891V180H622.461ZM680.195 137.109H697.773V141.367H696.172C694.87 141.367 693.88 141.797 693.203 142.656C692.526 143.49 691.784 145 690.977 147.188L679.375 180H668.828L655.703 145.195C655.13 143.659 654.349 142.643 653.359 142.148C652.37 141.628 651.016 141.367 649.297 141.367V137.109H674.102V141.367H670.742C668.971 141.367 668.086 142.214 668.086 143.906C668.086 144.557 668.164 145.195 668.32 145.82C668.503 146.445 668.672 146.979 668.828 147.422L674.18 162.578C674.831 164.271 675.391 165.977 675.859 167.695C676.354 169.414 676.732 170.951 676.992 172.305C677.122 171.732 677.344 170.885 677.656 169.766C677.969 168.62 678.281 167.513 678.594 166.445C678.932 165.352 679.167 164.583 679.297 164.141L684.727 148.086C684.987 147.357 685.195 146.628 685.352 145.898C685.534 145.143 685.625 144.401 685.625 143.672C685.625 142.786 685.326 142.188 684.727 141.875C684.154 141.536 683.411 141.367 682.5 141.367H680.195V137.109ZM722.305 180.781C715.56 180.781 710.404 178.854 706.836 175C703.32 171.198 701.562 165.794 701.562 158.789C701.562 151.315 703.294 145.651 706.758 141.797C710.169 137.995 715.052 136.094 721.406 136.094C727.292 136.094 731.862 137.721 735.117 140.977C736.732 142.591 737.969 144.596 738.828 146.992C739.688 149.388 740.117 152.174 740.117 155.352V159.453H713.906C713.984 162.135 714.284 164.44 714.805 166.367C715.326 168.294 716.029 169.883 716.914 171.133C718.685 173.581 721.25 174.805 724.609 174.805C727.24 174.805 729.531 174.219 731.484 173.047C733.438 171.849 734.909 170.273 735.898 168.32C737.331 169.102 738.047 170.404 738.047 172.227C738.047 173.372 737.734 174.466 737.109 175.508C736.484 176.523 735.521 177.422 734.219 178.203C732.917 178.984 731.276 179.609 729.297 180.078C727.344 180.547 725.013 180.781 722.305 180.781ZM721.562 141.289C719.323 141.289 717.539 142.396 716.211 144.609C714.909 146.823 714.193 150.065 714.062 154.336H727.891C727.891 152.305 727.773 150.482 727.539 148.867C727.331 147.253 726.966 145.885 726.445 144.766C725.378 142.448 723.75 141.289 721.562 141.289Z" fill="black"/>
<path d="M796.133 126.875H783.008V150H802.305V153.906H783.008V170.898C783.008 173.268 783.607 174.818 784.805 175.547C786.003 176.276 787.591 176.641 789.57 176.641H792.227V180H767.344V176.641H768.359C770.339 176.641 771.927 176.302 773.125 175.625C774.323 174.948 774.922 173.503 774.922 171.289V131.68C774.922 129.44 774.31 127.982 773.086 127.305C771.862 126.602 770.286 126.25 768.359 126.25H767.344V122.891H807.656L808.047 136.875H803.906L803.516 133.438C803.307 131.51 802.617 129.935 801.445 128.711C800.273 127.487 798.503 126.875 796.133 126.875ZM839.336 137.109H853.633V171.289C853.633 173.503 854.232 174.948 855.43 175.625C856.628 176.302 858.216 176.641 860.195 176.641H860.43V180H847.734L846.68 173.516H846.289C844.779 176.354 842.917 178.281 840.703 179.297C838.49 180.286 836.029 180.781 833.32 180.781C828.971 180.781 825.716 179.544 823.555 177.07C821.263 174.466 820.117 170.482 820.117 165.117V145.938C820.117 143.698 819.505 142.227 818.281 141.523C817.057 140.82 815.482 140.469 813.555 140.469H813.32V137.109H827.656V164.727C827.656 168.216 828.242 170.911 829.414 172.812C830.612 174.714 832.826 175.664 836.055 175.664C837.826 175.664 839.349 175.352 840.625 174.727C841.901 174.076 842.943 173.19 843.75 172.07C844.583 170.924 845.182 169.57 845.547 168.008C845.938 166.419 846.133 164.661 846.133 162.734V146.25C846.133 143.854 845.534 142.292 844.336 141.562C843.164 140.833 841.576 140.469 839.57 140.469H839.336V137.109ZM863.32 180V176.641H864.336C866.341 176.641 867.93 176.276 869.102 175.547C870.299 174.818 870.898 173.268 870.898 170.898V128.008C870.898 125.768 870.286 124.31 869.062 123.633C867.839 122.93 866.263 122.578 864.336 122.578H863.32V119.219H878.438V170.898C878.438 173.242 879.023 174.792 880.195 175.547C881.393 176.276 882.995 176.641 885 176.641H886.016V180H863.32ZM888.164 180V176.641H889.18C891.185 176.641 892.773 176.276 893.945 175.547C895.143 174.818 895.742 173.268 895.742 170.898V128.008C895.742 125.768 895.13 124.31 893.906 123.633C892.682 122.93 891.107 122.578 889.18 122.578H888.164V119.219H903.281V170.898C903.281 173.242 903.867 174.792 905.039 175.547C906.237 176.276 907.839 176.641 909.844 176.641H910.859V180H888.164ZM952.5 180.781C949.896 180.781 947.591 180.508 945.586 179.961C943.607 179.388 941.953 178.62 940.625 177.656C937.917 175.703 936.562 172.995 936.562 169.531C936.562 167.917 937.057 166.615 938.047 165.625C939.062 164.635 940.495 164.141 942.344 164.141C942.422 165.807 942.669 167.409 943.086 168.945C943.529 170.482 944.18 171.836 945.039 173.008C945.898 174.18 946.992 175.117 948.32 175.82C949.648 176.523 951.25 176.875 953.125 176.875C956.719 176.875 959.518 176.016 961.523 174.297C963.555 172.552 964.57 170.052 964.57 166.797C964.57 163.932 963.672 161.602 961.875 159.805C960.911 158.867 959.635 157.969 958.047 157.109C956.484 156.224 954.531 155.299 952.188 154.336C949.714 153.32 947.552 152.24 945.703 151.094C943.854 149.922 942.318 148.62 941.094 147.188C938.672 144.427 937.461 140.885 937.461 136.562C937.461 134.271 937.891 132.227 938.75 130.43C939.635 128.633 940.859 127.109 942.422 125.859C945.625 123.333 949.805 122.07 954.961 122.07C957.357 122.07 959.479 122.318 961.328 122.812C963.177 123.307 964.74 123.971 966.016 124.805C968.62 126.523 969.922 128.607 969.922 131.055C969.922 132.773 969.349 134.076 968.203 134.961C967.083 135.82 965.56 136.25 963.633 136.25C963.633 134.453 963.32 132.786 962.695 131.25C962.096 129.714 961.133 128.477 959.805 127.539C958.503 126.576 956.784 126.094 954.648 126.094C951.654 126.094 949.271 126.914 947.5 128.555C945.755 130.169 944.883 132.383 944.883 135.195C944.883 138.346 945.794 140.833 947.617 142.656C948.607 143.62 949.883 144.544 951.445 145.43C953.034 146.315 954.987 147.227 957.305 148.164C959.648 149.128 961.732 150.143 963.555 151.211C965.404 152.279 966.966 153.464 968.242 154.766C969.518 156.094 970.495 157.578 971.172 159.219C971.849 160.833 972.188 162.669 972.188 164.727C972.188 169.727 970.404 173.672 966.836 176.562C963.346 179.375 958.568 180.781 952.5 180.781ZM997.461 176.562C998.424 176.562 999.31 176.51 1000.12 176.406C1000.92 176.302 1001.74 176.172 1002.58 176.016V179.531C1001.85 179.87 1000.77 180.156 999.336 180.391C997.93 180.651 996.641 180.781 995.469 180.781C991.38 180.781 988.438 179.87 986.641 178.047C984.792 176.172 983.867 172.956 983.867 168.398V141.68H977.773V138.477C978.737 138.477 979.792 138.281 980.938 137.891C982.109 137.5 983.138 136.849 984.023 135.938C984.935 134.948 985.664 133.776 986.211 132.422C986.784 131.042 987.279 129.323 987.695 127.266H991.367V137.109H1001.84V141.68H991.367V168.633C991.367 171.367 991.914 173.372 993.008 174.648C994.128 175.924 995.612 176.562 997.461 176.562ZM1025.9 140.312C1022.96 140.312 1021 141.094 1020.04 142.656C1019.08 144.193 1018.59 146.315 1018.59 149.023C1016.38 149.023 1014.69 148.646 1013.52 147.891C1012.37 147.135 1011.8 145.833 1011.8 143.984C1011.8 142.604 1012.17 141.432 1012.93 140.469C1013.68 139.505 1014.73 138.711 1016.05 138.086C1017.36 137.487 1018.88 137.044 1020.62 136.758C1022.37 136.471 1024.23 136.328 1026.21 136.328C1028.66 136.328 1030.79 136.576 1032.62 137.07C1034.44 137.539 1035.96 138.32 1037.19 139.414C1039.64 141.602 1040.86 145.182 1040.86 150.156V170.898C1040.86 173.034 1041.22 174.531 1041.95 175.391C1042.68 176.224 1043.97 176.641 1045.82 176.641H1046.05V180H1035.23L1033.98 173.125H1033.32C1032.15 174.688 1031.02 176.042 1029.92 177.188C1028.83 178.333 1027.58 179.219 1026.17 179.844C1024.77 180.469 1022.99 180.781 1020.86 180.781C1019.09 180.781 1017.43 180.521 1015.9 180C1014.39 179.479 1013.09 178.698 1011.99 177.656C1010.87 176.589 1010 175.26 1009.38 173.672C1008.75 172.083 1008.44 170.195 1008.44 168.008C1008.44 163.763 1009.95 160.612 1012.97 158.555C1015.99 156.497 1020.56 155.378 1026.68 155.195L1033.32 154.961V150.156C1033.32 148.125 1033.14 146.38 1032.77 144.922C1032.43 143.438 1031.73 142.305 1030.66 141.523C1029.62 140.716 1028.03 140.312 1025.9 140.312ZM1016.21 168.398C1016.21 173.372 1018.37 175.859 1022.7 175.859C1025.98 175.859 1028.57 174.857 1030.47 172.852C1032.37 170.82 1033.32 168.112 1033.32 164.727V158.242L1028.2 158.477C1023.83 158.659 1020.7 159.57 1018.83 161.211C1017.89 162.018 1017.21 163.034 1016.8 164.258C1016.41 165.456 1016.21 166.836 1016.21 168.398ZM1072.19 180.781C1069.53 180.781 1067.08 180.378 1064.84 179.57C1062.6 178.737 1060.68 177.435 1059.06 175.664C1057.45 173.893 1056.18 171.628 1055.27 168.867C1054.39 166.081 1053.95 162.721 1053.95 158.789C1053.95 154.518 1054.4 150.951 1055.31 148.086C1056.22 145.195 1057.47 142.878 1059.06 141.133C1060.68 139.388 1062.57 138.151 1064.73 137.422C1066.89 136.693 1069.23 136.328 1071.76 136.328C1073.42 136.328 1075.08 136.497 1076.72 136.836C1078.39 137.148 1079.88 137.643 1081.21 138.32C1082.54 138.997 1083.62 139.857 1084.45 140.898C1085.29 141.914 1085.7 143.112 1085.7 144.492C1085.7 146.341 1085.1 147.643 1083.91 148.398C1082.71 149.154 1080.92 149.531 1078.55 149.531C1078.55 146.901 1078.07 144.714 1077.11 142.969C1076.17 141.198 1074.39 140.312 1071.76 140.312C1070.22 140.312 1068.83 140.599 1067.58 141.172C1066.35 141.745 1065.3 142.734 1064.41 144.141C1063.53 145.547 1062.85 147.435 1062.38 149.805C1061.91 152.174 1061.68 155.143 1061.68 158.711C1061.68 164.388 1062.62 168.62 1064.49 171.406C1066.39 174.193 1069.49 175.586 1073.79 175.586C1076.26 175.586 1078.42 175.065 1080.27 174.023C1082.12 172.982 1083.5 171.641 1084.41 170C1084.8 170.312 1085.13 170.729 1085.39 171.25C1085.65 171.771 1085.78 172.396 1085.78 173.125C1085.78 174.036 1085.49 174.948 1084.92 175.859C1084.38 176.771 1083.53 177.591 1082.38 178.32C1081.26 179.049 1079.84 179.635 1078.12 180.078C1076.43 180.547 1074.45 180.781 1072.19 180.781ZM1121.64 147.93L1116.02 154.258L1126.68 170.078C1128.06 172.214 1129.43 173.841 1130.78 174.961C1132.16 176.081 1133.75 176.641 1135.55 176.641H1135.78V180H1134.65C1132.33 180 1130.42 179.935 1128.91 179.805C1127.42 179.648 1126.13 179.297 1125.04 178.75C1123.95 178.229 1122.94 177.461 1122.03 176.445C1121.12 175.404 1120.1 173.997 1118.98 172.227L1110.98 159.688L1105.08 164.062V171.289C1105.08 173.503 1105.68 174.948 1106.88 175.625C1108.07 176.302 1109.66 176.641 1111.64 176.641H1111.88V180H1090.35V176.641H1090.98C1092.98 176.641 1094.57 176.276 1095.74 175.547C1096.94 174.818 1097.54 173.268 1097.54 170.898V128.008C1097.54 125.768 1096.93 124.31 1095.7 123.633C1094.48 122.93 1092.9 122.578 1090.98 122.578H1090.35V119.219H1105.08V150.078C1105.08 150.807 1105.07 151.745 1105.04 152.891C1105.01 154.01 1104.97 155.117 1104.92 156.211C1104.9 156.836 1104.87 157.487 1104.84 158.164C1104.82 158.815 1104.79 159.479 1104.77 160.156L1114.77 149.219C1116.17 147.63 1117.25 146.263 1118.01 145.117C1118.76 143.971 1119.14 142.956 1119.14 142.07C1119.14 141.367 1118.83 140.924 1118.2 140.742C1117.58 140.56 1116.59 140.469 1115.23 140.469V137.109H1132.89V140.469C1131.04 140.469 1129.22 141.12 1127.42 142.422C1125.65 143.724 1123.72 145.56 1121.64 147.93ZM588.555 253.367C588.555 262.299 586.38 269.253 582.031 274.227C579.87 276.727 577.161 278.654 573.906 280.008C570.651 281.336 566.849 282 562.5 282H538.008V278.641H539.023C541.029 278.641 542.617 278.276 543.789 277.547C544.987 276.792 545.586 275.242 545.586 272.898V233.68C545.586 231.44 544.974 229.982 543.75 229.305C542.526 228.602 540.951 228.25 539.023 228.25H538.008V224.891H562.5C570.755 224.891 577.161 227.365 581.719 232.312C586.276 237.26 588.555 244.279 588.555 253.367ZM553.672 228.875V277.938H560.625C566.953 277.938 571.719 275.815 574.922 271.57C578.099 267.378 579.688 261.31 579.688 253.367C579.688 245.424 578.099 239.357 574.922 235.164C571.771 230.971 567.031 228.875 560.703 228.875H553.672ZM616.133 282.781C610.273 282.781 605.729 280.867 602.5 277.039C600.911 275.164 599.688 272.872 598.828 270.164C597.995 267.43 597.578 264.331 597.578 260.867C597.578 253.393 599.115 247.768 602.188 243.992C605.26 240.216 609.635 238.328 615.312 238.328C620.599 238.328 624.661 239.93 627.5 243.133C628.932 244.721 630.026 246.714 630.781 249.109C631.562 251.505 631.953 254.279 631.953 257.43V261.102H605.312C605.417 266.883 606.484 271.115 608.516 273.797C610.469 276.427 613.372 277.742 617.227 277.742C619.753 277.742 622.031 277.208 624.062 276.141C626.12 275.073 627.656 273.745 628.672 272.156C629.036 272.312 629.375 272.638 629.688 273.133C630.026 273.628 630.195 274.214 630.195 274.891C630.195 275.698 629.909 276.57 629.336 277.508C628.763 278.419 627.891 279.266 626.719 280.047C625.547 280.828 624.076 281.479 622.305 282C620.56 282.521 618.503 282.781 616.133 282.781ZM615.156 242.625C612.188 242.625 609.896 243.836 608.281 246.258C606.693 248.654 605.755 252.169 605.469 256.805H623.867C623.867 254.695 623.711 252.768 623.398 251.023C623.086 249.279 622.591 247.781 621.914 246.531C621.237 245.281 620.339 244.318 619.219 243.641C618.125 242.964 616.771 242.625 615.156 242.625ZM636.523 242.469H636.289V239.109H656.289V242.469H655.273C652.07 242.469 650.469 243.758 650.469 246.336C650.469 247.117 650.677 248.094 651.094 249.266L656.523 264.383C656.914 265.424 657.357 266.74 657.852 268.328C658.346 269.917 658.802 271.466 659.219 272.977C659.635 274.461 659.909 275.607 660.039 276.414H660.312C660.443 275.841 660.742 274.904 661.211 273.602C661.706 272.273 662.24 270.854 662.812 269.344C663.385 267.833 663.88 266.531 664.297 265.438L670.039 249.852C670.534 248.602 670.781 247.456 670.781 246.414C670.781 243.784 669.023 242.469 665.508 242.469H664.922V239.109H682.07V242.469H681.094C679.401 242.469 678.19 242.938 677.461 243.875C676.732 244.786 675.911 246.401 675 248.719L662.383 282H655.078L642.227 246.727C641.628 245.112 640.924 244.005 640.117 243.406C639.336 242.781 638.138 242.469 636.523 242.469Z" fill="#4E4E4E"/>
<path d="M705.273 282.781C699.414 282.781 694.87 280.867 691.641 277.039C690.052 275.164 688.828 272.872 687.969 270.164C687.135 267.43 686.719 264.331 686.719 260.867C686.719 253.393 688.255 247.768 691.328 243.992C694.401 240.216 698.776 238.328 704.453 238.328C709.74 238.328 713.802 239.93 716.641 243.133C718.073 244.721 719.167 246.714 719.922 249.109C720.703 251.505 721.094 254.279 721.094 257.43V261.102H694.453C694.557 266.883 695.625 271.115 697.656 273.797C699.609 276.427 702.513 277.742 706.367 277.742C708.893 277.742 711.172 277.208 713.203 276.141C715.26 275.073 716.797 273.745 717.812 272.156C718.177 272.312 718.516 272.638 718.828 273.133C719.167 273.628 719.336 274.214 719.336 274.891C719.336 275.698 719.049 276.57 718.477 277.508C717.904 278.419 717.031 279.266 715.859 280.047C714.688 280.828 713.216 281.479 711.445 282C709.701 282.521 707.643 282.781 705.273 282.781ZM704.297 242.625C701.328 242.625 699.036 243.836 697.422 246.258C695.833 248.654 694.896 252.169 694.609 256.805H713.008C713.008 254.695 712.852 252.768 712.539 251.023C712.227 249.279 711.732 247.781 711.055 246.531C710.378 245.281 709.479 244.318 708.359 243.641C707.266 242.964 705.911 242.625 704.297 242.625ZM726.172 282V278.641H727.188C729.193 278.641 730.781 278.276 731.953 277.547C733.151 276.818 733.75 275.268 733.75 272.898V230.008C733.75 227.768 733.138 226.31 731.914 225.633C730.69 224.93 729.115 224.578 727.188 224.578H726.172V221.219H741.289V272.898C741.289 275.242 741.875 276.792 743.047 277.547C744.245 278.276 745.846 278.641 747.852 278.641H748.867V282H726.172ZM791.719 260.477C791.719 268.003 790.117 273.602 786.914 277.273C783.737 280.945 779.076 282.781 772.93 282.781C767.044 282.781 762.513 280.945 759.336 277.273C757.747 275.424 756.523 273.107 755.664 270.32C754.805 267.508 754.375 264.227 754.375 260.477C754.375 253.003 755.951 247.443 759.102 243.797C762.279 240.151 766.966 238.328 773.164 238.328C779.102 238.328 783.646 240.138 786.797 243.758C788.411 245.581 789.635 247.885 790.469 250.672C791.302 253.458 791.719 256.727 791.719 260.477ZM762.109 260.477C762.109 263.445 762.305 266.062 762.695 268.328C763.086 270.568 763.724 272.456 764.609 273.992C766.354 277.091 769.18 278.641 773.086 278.641C776.966 278.641 779.779 277.091 781.523 273.992C782.383 272.456 782.995 270.568 783.359 268.328C783.75 266.062 783.945 263.445 783.945 260.477C783.945 257.508 783.75 254.904 783.359 252.664C782.969 250.424 782.344 248.549 781.484 247.039C779.74 244.044 776.914 242.547 773.008 242.547C769.128 242.547 766.315 244.044 764.57 247.039C763.711 248.549 763.086 250.424 762.695 252.664C762.305 254.904 762.109 257.508 762.109 260.477ZM840.859 260.477C840.859 268.107 839.453 273.758 836.641 277.43C833.906 280.997 829.87 282.781 824.531 282.781C821.615 282.781 819.154 282.156 817.148 280.906C815.143 279.656 813.529 277.938 812.305 275.75H811.992C812.018 276.427 812.044 277.091 812.07 277.742C812.096 278.393 812.122 279.018 812.148 279.617C812.174 279.93 812.188 280.49 812.188 281.297C812.214 282.078 812.24 282.82 812.266 283.523C812.292 284.253 812.305 284.682 812.305 284.812V292.469C812.305 294.708 812.904 296.167 814.102 296.844C815.326 297.521 816.914 297.859 818.867 297.859H819.102V301.219H797.578V297.859H798.203C800.208 297.859 801.797 297.482 802.969 296.727C804.167 295.997 804.766 294.448 804.766 292.078V247.938C804.766 245.698 804.154 244.227 802.93 243.523C801.706 242.82 800.13 242.469 798.203 242.469H797.188V239.109H811.172L811.992 246.336H812.305C813.529 243.81 815.104 241.844 817.031 240.438C818.958 239.031 821.458 238.328 824.531 238.328C829.87 238.328 833.906 240.099 836.641 243.641C839.453 247.312 840.859 252.924 840.859 260.477ZM823.164 243.445C819.128 243.445 816.276 244.839 814.609 247.625C813.776 249.031 813.177 250.802 812.812 252.938C812.474 255.073 812.305 257.586 812.305 260.477C812.305 263.263 812.474 265.724 812.812 267.859C813.177 269.995 813.789 271.792 814.648 273.25C815.482 274.708 816.589 275.815 817.969 276.57C819.375 277.299 821.133 277.664 823.242 277.664C826.68 277.664 829.206 276.193 830.82 273.25C831.602 271.792 832.174 269.995 832.539 267.859C832.904 265.698 833.086 263.211 833.086 260.398C833.086 254.617 832.331 250.372 830.82 247.664C829.232 244.852 826.68 243.445 823.164 243.445ZM868.242 282.781C862.383 282.781 857.839 280.867 854.609 277.039C853.021 275.164 851.797 272.872 850.938 270.164C850.104 267.43 849.688 264.331 849.688 260.867C849.688 253.393 851.224 247.768 854.297 243.992C857.37 240.216 861.745 238.328 867.422 238.328C872.708 238.328 876.771 239.93 879.609 243.133C881.042 244.721 882.135 246.714 882.891 249.109C883.672 251.505 884.062 254.279 884.062 257.43V261.102H857.422C857.526 266.883 858.594 271.115 860.625 273.797C862.578 276.427 865.482 277.742 869.336 277.742C871.862 277.742 874.141 277.208 876.172 276.141C878.229 275.073 879.766 273.745 880.781 272.156C881.146 272.312 881.484 272.638 881.797 273.133C882.135 273.628 882.305 274.214 882.305 274.891C882.305 275.698 882.018 276.57 881.445 277.508C880.872 278.419 880 279.266 878.828 280.047C877.656 280.828 876.185 281.479 874.414 282C872.669 282.521 870.612 282.781 868.242 282.781ZM867.266 242.625C864.297 242.625 862.005 243.836 860.391 246.258C858.802 248.654 857.865 252.169 857.578 256.805H875.977C875.977 254.695 875.82 252.768 875.508 251.023C875.195 249.279 874.701 247.781 874.023 246.531C873.346 245.281 872.448 244.318 871.328 243.641C870.234 242.964 868.88 242.625 867.266 242.625ZM911.602 278.641H913.828V282H890.742V278.641H890.977C892.982 278.641 894.57 278.276 895.742 277.547C896.94 276.818 897.539 275.268 897.539 272.898V247.938C897.539 245.698 896.927 244.227 895.703 243.523C894.479 242.82 892.904 242.469 890.977 242.469H890.742V239.109H903.047L904.57 247.039H904.961C905.742 245.268 906.536 243.732 907.344 242.43C908.177 241.128 909.258 240.125 910.586 239.422C911.914 238.693 913.698 238.328 915.938 238.328C921.693 238.328 924.57 240.268 924.57 244.148C924.57 247.951 922.083 249.852 917.109 249.852C917.109 247.638 916.797 246.049 916.172 245.086C915.547 244.096 914.453 243.602 912.891 243.602C911.901 243.602 911.016 243.875 910.234 244.422C908.724 245.516 907.552 247.326 906.719 249.852C906.302 250.997 905.977 252.221 905.742 253.523C905.482 254.799 905.299 256.062 905.195 257.312C905.091 258.562 905.039 259.695 905.039 260.711V273.289C905.039 275.503 905.638 276.948 906.836 277.625C908.034 278.302 909.622 278.641 911.602 278.641Z" fill="#EAEAEA"/>
<path d="M488.833 592.995C490.933 592.995 492.794 592.757 494.418 592.281C496.07 591.777 497.539 591.133 498.827 590.35C500.115 589.566 501.235 588.684 502.187 587.704C503.166 586.724 504.02 585.758 504.748 584.807C505.196 585.143 505.546 585.66 505.798 586.36C506.078 587.06 506.218 587.774 506.218 588.502C506.218 589.706 505.896 590.979 505.252 592.323C504.608 593.639 503.53 594.857 502.019 595.977C500.507 597.096 498.505 598.02 496.014 598.748C493.522 599.476 490.443 599.84 486.775 599.84C481.792 599.84 477.439 599.084 473.716 597.572C469.993 596.061 466.899 593.919 464.436 591.147C461.972 588.376 460.124 585.045 458.893 581.153C457.661 577.262 457.045 572.951 457.045 568.22C457.045 563.573 457.675 559.317 458.935 555.454C460.222 551.591 462.098 548.273 464.562 545.502C467.053 542.73 470.146 540.575 473.842 539.035C477.537 537.495 481.82 536.726 486.691 536.726C489.995 536.726 492.864 536.992 495.3 537.523C497.763 538.027 499.807 538.727 501.431 539.623C504.678 541.443 506.302 543.808 506.302 546.72C506.302 549.043 505.308 550.877 503.32 552.221C501.361 553.536 498.771 554.194 495.552 554.194C495.552 552.151 495.23 550.219 494.586 548.399C493.97 546.58 492.976 545.096 491.604 543.948C490.233 542.8 488.399 542.227 486.104 542.227C480.84 542.227 477.047 544.48 474.724 548.987C473.604 551.199 472.778 553.928 472.246 557.176C471.742 560.395 471.49 564.076 471.49 568.22C471.49 572.363 471.798 575.988 472.414 579.096C473.03 582.175 474.024 584.751 475.396 586.822C478.139 590.938 482.618 592.995 488.833 592.995ZM537.418 594.423H540.189V599H511.467V594.423H511.719C513.874 594.423 515.512 594.031 516.632 593.247C517.78 592.435 518.354 590.77 518.354 588.25V563.307C518.354 560.899 517.822 559.331 516.758 558.604C515.722 557.848 514.182 557.47 512.139 557.47H511.887V552.893H529.271L530.993 559.611H531.413C532.589 556.896 534.059 554.936 535.822 553.732C537.586 552.501 540.161 551.885 543.549 551.885C550.128 551.885 553.417 554.208 553.417 558.855C553.417 561.487 552.465 563.531 550.562 564.986C548.658 566.442 545.97 567.17 542.499 567.17C542.499 564.958 542.233 563.223 541.701 561.963C541.169 560.675 540.035 560.031 538.3 560.031C536.844 560.031 535.654 560.577 534.73 561.669C533.807 562.733 533.107 563.993 532.631 565.448C532.295 566.456 532.043 567.464 531.875 568.472C531.679 569.507 531.553 570.487 531.497 571.411C531.441 572.335 531.413 573.133 531.413 573.805V588.67C531.413 591.049 531.931 592.603 532.967 593.331C534.003 594.059 535.486 594.423 537.418 594.423ZM579.62 557.05C577.381 557.05 575.855 557.946 575.043 559.737C574.259 561.501 573.867 563.699 573.867 566.33C570.004 566.33 567.092 565.896 565.133 565.028C563.201 564.16 562.235 562.677 562.235 560.577C562.235 559.009 562.697 557.666 563.621 556.546C564.573 555.426 565.861 554.516 567.484 553.816C569.08 553.117 570.942 552.613 573.069 552.305C575.225 551.969 577.521 551.801 579.956 551.801C582.979 551.801 585.611 552.067 587.851 552.599C590.118 553.103 592.008 553.928 593.52 555.076C596.515 557.4 598.013 561.179 598.013 566.414V588.334C598.013 590.602 598.377 592.183 599.104 593.079C599.86 593.975 601.218 594.423 603.178 594.423H603.514V599H587.515L585.709 593.079H584.953C583.637 594.647 582.406 595.935 581.258 596.942C580.138 597.95 578.878 598.678 577.479 599.126C576.079 599.602 574.301 599.84 572.146 599.84C570.242 599.84 568.478 599.56 566.854 599C565.231 598.44 563.803 597.572 562.571 596.396C561.368 595.249 560.402 593.807 559.674 592.071C558.974 590.308 558.624 588.236 558.624 585.856C558.624 581.181 560.22 577.724 563.411 575.484C566.631 573.245 571.46 572.027 577.898 571.831L584.953 571.579V566.834C584.953 563.979 584.659 561.641 584.071 559.821C583.483 557.974 582 557.05 579.62 557.05ZM571.978 586.192C571.978 591.119 573.601 593.583 576.849 593.583C579.424 593.583 581.412 592.547 582.812 590.476C584.239 588.404 584.953 585.772 584.953 582.581V576.114L581.09 576.366C577.758 576.534 575.407 577.43 574.035 579.054C572.663 580.649 571.978 583.029 571.978 586.192ZM639.165 594.423V599H607.965V594.423H609.854C611.394 594.423 612.794 594.045 614.054 593.289C615.313 592.533 615.943 591.049 615.943 588.838V558.771H608.301V552.893H615.943V549.701C615.943 544.242 617.357 540.099 620.185 537.271C623.124 534.332 627.561 532.862 633.496 532.862C636.268 532.862 638.577 533.03 640.425 533.366C642.272 533.674 643.742 534.108 644.834 534.668C645.926 535.256 646.696 535.928 647.144 536.684C647.619 537.439 647.857 538.265 647.857 539.161C647.857 542.884 644.33 544.746 637.275 544.746C637.275 543.738 637.135 542.702 636.855 541.639C636.576 540.547 636.114 539.637 635.47 538.909C634.854 538.153 634.028 537.775 632.992 537.775C631.368 537.775 630.305 538.713 629.801 540.589C629.297 542.437 629.045 544.97 629.045 548.189V552.893H640.887V558.771H629.045V588.838C629.045 591.049 629.675 592.533 630.935 593.289C632.194 594.045 633.594 594.423 635.134 594.423H639.165ZM668.35 592.911C669.469 592.911 670.533 592.841 671.541 592.701C672.577 592.533 673.543 592.337 674.438 592.113V597.698C673.319 598.23 671.639 598.72 669.399 599.168C667.188 599.616 664.808 599.84 662.261 599.84C660.329 599.84 658.579 599.602 657.012 599.126C655.444 598.678 654.114 597.908 653.022 596.816C651.931 595.753 651.091 594.367 650.503 592.659C649.915 590.924 649.621 588.796 649.621 586.276V558.771H643.154V554.362C645.002 554.362 646.654 553.998 648.109 553.271C649.565 552.543 650.727 551.703 651.595 550.751C653.33 548.931 654.646 546.09 655.542 542.227H662.681V552.893H673.683V558.771H662.681V585.395C662.681 587.998 663.115 589.902 663.982 591.105C664.878 592.309 666.334 592.911 668.35 592.911ZM683.593 538.951C683.593 536.824 684.279 535.27 685.65 534.29C687.05 533.282 688.8 532.778 690.899 532.778C692.943 532.778 694.679 533.282 696.106 534.29C697.562 535.27 698.29 536.824 698.29 538.951C698.29 541.023 697.562 542.576 696.106 543.612C694.651 544.648 692.915 545.166 690.899 545.166C688.8 545.166 687.05 544.648 685.65 543.612C684.279 542.576 683.593 541.023 683.593 538.951ZM677.672 599V594.423H678.68C680.247 594.423 681.661 594.045 682.921 593.289C684.181 592.533 684.811 591.049 684.811 588.838V562.719C684.811 560.619 684.167 559.219 682.879 558.52C681.591 557.82 680.191 557.47 678.68 557.47H677.672V552.893H697.87V588.838C697.87 591.049 698.5 592.533 699.76 593.289C701.048 594.045 702.461 594.423 704.001 594.423H705.009V599H677.672ZM761.656 594.423V599H742.55V570.697C742.55 567.226 742.06 564.426 741.08 562.299C740.128 560.171 738.323 559.107 735.663 559.107C733.759 559.107 732.262 559.737 731.17 560.997C730.078 562.257 729.308 563.909 728.86 565.952C728.412 567.968 728.188 570.123 728.188 572.419V588.838C728.188 591.133 728.72 592.645 729.784 593.373C730.848 594.073 732.388 594.423 734.403 594.423H734.655V599H708.242V594.423H708.41C710.538 594.423 712.189 594.059 713.365 593.331C714.541 592.575 715.129 590.965 715.129 588.502V563.055C715.129 560.731 714.597 559.219 713.533 558.52C712.469 557.82 710.93 557.47 708.914 557.47H708.662V552.893H726.719L727.853 559.023H728.272C729.924 555.944 731.786 553.97 733.857 553.103C735.957 552.235 738.477 551.801 741.416 551.801C743.628 551.801 745.615 552.123 747.379 552.767C749.171 553.41 750.668 554.404 751.872 555.748C753.104 557.092 754.028 558.813 754.644 560.913C755.287 562.985 755.609 565.476 755.609 568.388V588.334C755.609 590.826 756.043 592.463 756.911 593.247C757.807 594.031 759.305 594.423 761.404 594.423H761.656ZM811.627 554.53C811.627 556.042 811.137 557.246 810.157 558.142C809.205 559.009 807.652 559.443 805.496 559.443C805.496 558.324 805.174 557.442 804.53 556.798C803.886 556.154 803.117 555.832 802.221 555.832C801.745 555.832 801.227 555.93 800.667 556.126C800.135 556.322 799.715 556.532 799.407 556.756C800.583 558.044 801.577 559.695 802.389 561.711C803.201 563.727 803.606 565.728 803.606 567.716C803.606 569.871 803.257 571.873 802.557 573.721C801.885 575.54 800.835 577.122 799.407 578.466C797.979 579.81 796.174 580.859 793.99 581.615C791.807 582.371 789.217 582.749 786.222 582.749C785.522 582.749 784.612 582.721 783.492 582.665C782.4 582.581 781.659 582.525 781.267 582.497C780.483 582.917 779.769 583.505 779.125 584.261C778.481 585.017 778.159 585.884 778.159 586.864C778.159 587.816 778.523 588.516 779.251 588.964C780.007 589.412 780.987 589.636 782.19 589.636H792.604C795.46 589.636 797.924 589.944 799.995 590.56C802.067 591.147 803.788 592.001 805.16 593.121C806.504 594.241 807.498 595.627 808.142 597.278C808.785 598.902 809.107 600.736 809.107 602.779C809.107 608.21 807.078 612.354 803.019 615.209C800.975 616.637 798.385 617.729 795.25 618.484C792.115 619.268 788.419 619.66 784.164 619.66C770.755 619.66 764.05 615.671 764.05 607.692C764.05 604.613 765.044 602.247 767.031 600.596C769.019 598.972 771.902 598.006 775.682 597.698C774.03 597.054 772.56 596.117 771.272 594.885C770.013 593.625 769.383 592.015 769.383 590.056C769.383 588.096 770.125 586.402 771.608 584.975C773.12 583.547 774.926 582.231 777.025 581.027C774.394 580.076 772.266 578.452 770.643 576.156C769.047 573.833 768.249 571.019 768.249 567.716C768.249 562.677 769.705 558.771 772.616 556C775.556 553.201 780.091 551.801 786.222 551.801C788.265 551.801 790.155 552.067 791.891 552.599C793.654 553.103 795.18 553.718 796.468 554.446C797.588 553.243 798.819 552.137 800.163 551.129C801.535 550.121 803.285 549.617 805.412 549.617C807.316 549.617 808.827 550.079 809.947 551.003C811.067 551.927 811.627 553.103 811.627 554.53ZM779.965 567.716C779.965 570.571 780.385 572.951 781.225 574.854C782.092 576.73 783.674 577.668 785.97 577.668C788.321 577.668 789.889 576.73 790.673 574.854C791.457 572.979 791.849 570.557 791.849 567.59C791.849 564.594 791.443 562.075 790.631 560.031C789.819 557.988 788.237 556.966 785.886 556.966C783.59 556.966 782.022 558.016 781.183 560.115C780.371 562.187 779.965 564.72 779.965 567.716ZM774.212 607.524C774.212 612.172 777.585 614.495 784.332 614.495C789.371 614.495 793.038 613.767 795.334 612.312C797.63 610.856 798.777 608.714 798.777 605.887C798.777 604.067 798.203 602.793 797.056 602.065C795.908 601.338 794.172 600.974 791.849 600.974H781.854C779.839 600.974 778.061 601.408 776.521 602.275C774.982 603.171 774.212 604.921 774.212 607.524Z" fill="#161614"/>
<path d="M857.23 595.305C858.266 595.305 859.218 595.249 860.086 595.137C860.954 595.025 861.836 594.885 862.731 594.717V598.496C861.948 598.86 860.786 599.168 859.246 599.42C857.734 599.7 856.349 599.84 855.089 599.84C850.694 599.84 847.53 598.86 845.599 596.9C843.611 594.885 842.617 591.427 842.617 586.528V557.806H836.066V554.362C837.102 554.362 838.236 554.152 839.468 553.732C840.728 553.312 841.833 552.613 842.785 551.633C843.765 550.569 844.549 549.309 845.137 547.854C845.753 546.37 846.285 544.522 846.732 542.311H850.68V552.893H861.934V557.806H850.68V586.78C850.68 589.72 851.268 591.875 852.443 593.247C853.647 594.619 855.243 595.305 857.23 595.305ZM889.187 595.389H889.438V599H866.301V595.389H866.973C869.128 595.389 870.836 594.997 872.096 594.213C873.383 593.429 874.027 591.763 874.027 589.216V543.108C874.027 540.701 873.369 539.133 872.054 538.405C870.738 537.649 869.044 537.271 866.973 537.271H866.301V533.66H882.132V552.557C882.132 553.34 882.118 554.166 882.09 555.034C882.062 555.874 882.02 556.658 881.964 557.386C881.936 557.806 881.908 558.226 881.88 558.646C881.852 559.065 881.824 559.471 881.796 559.863H882.216C884.791 554.656 889.005 552.053 894.855 552.053C899.811 552.053 903.562 553.382 906.109 556.042C908.741 558.841 910.057 563.125 910.057 568.892V589.216C910.057 591.735 910.631 593.401 911.778 594.213C912.954 594.997 914.592 595.389 916.691 595.389H916.943V599H901.994V569.312C901.994 565.56 901.294 562.663 899.895 560.619C898.495 558.576 896.045 557.554 892.546 557.554C889.047 557.554 886.429 558.813 884.693 561.333C882.986 563.741 882.132 567.128 882.132 571.495V589.636C882.132 592.015 882.776 593.569 884.063 594.297C885.351 595.025 887.059 595.389 889.187 595.389ZM944.028 599.84C937.729 599.84 932.844 597.782 929.373 593.667C927.665 591.651 926.35 589.188 925.426 586.276C924.53 583.337 924.082 580.006 924.082 576.282C924.082 568.248 925.734 562.201 929.037 558.142C932.34 554.082 937.044 552.053 943.146 552.053C948.829 552.053 953.197 553.774 956.248 557.218C957.788 558.925 958.964 561.067 959.775 563.643C960.615 566.218 961.035 569.2 961.035 572.587V576.534H932.396C932.508 582.749 933.656 587.298 935.84 590.182C937.939 593.009 941.061 594.423 945.204 594.423C947.92 594.423 950.369 593.849 952.553 592.701C954.764 591.553 956.416 590.126 957.508 588.418C957.9 588.586 958.264 588.936 958.6 589.468C958.964 590 959.146 590.63 959.146 591.357C959.146 592.225 958.838 593.163 958.222 594.171C957.606 595.151 956.668 596.061 955.408 596.9C954.148 597.74 952.567 598.44 950.663 599C948.787 599.56 946.576 599.84 944.028 599.84ZM942.979 556.672C939.787 556.672 937.324 557.974 935.588 560.577C933.88 563.153 932.872 566.932 932.564 571.915H952.343C952.343 569.647 952.175 567.576 951.839 565.7C951.503 563.825 950.971 562.215 950.243 560.871C949.515 559.527 948.549 558.492 947.346 557.764C946.17 557.036 944.714 556.672 942.979 556.672ZM850.932 704.389H851.184V708H828.046V704.389H828.718C830.873 704.389 832.581 703.997 833.841 703.213C835.129 702.429 835.772 700.763 835.772 698.216V652.108C835.772 649.701 835.115 648.133 833.799 647.405C832.483 646.649 830.789 646.271 828.718 646.271H828.046V642.66H843.877V661.557C843.877 662.34 843.863 663.166 843.835 664.034C843.807 664.874 843.765 665.658 843.709 666.386C843.681 666.806 843.653 667.226 843.625 667.646C843.597 668.065 843.569 668.471 843.541 668.863H843.961C846.536 663.656 850.75 661.053 856.601 661.053C861.556 661.053 865.307 662.382 867.854 665.042C870.486 667.841 871.802 672.125 871.802 677.892V698.216C871.802 700.735 872.376 702.401 873.523 703.213C874.699 703.997 876.337 704.389 878.437 704.389H878.688V708H863.739V678.312C863.739 674.56 863.039 671.663 861.64 669.619C860.24 667.576 857.79 666.554 854.291 666.554C850.792 666.554 848.174 667.813 846.438 670.333C844.731 672.741 843.877 676.128 843.877 680.495V698.636C843.877 701.015 844.521 702.569 845.809 703.297C847.096 704.025 848.804 704.389 850.932 704.389ZM906.361 704.389H906.613V708H883.476V704.389H884.189C886.345 704.389 888.053 703.997 889.312 703.213C890.6 702.429 891.244 700.763 891.244 698.216V671.383C891.244 668.975 890.586 667.394 889.271 666.638C887.955 665.882 886.261 665.504 884.189 665.504H883.938V661.893H897.837L898.971 668.863H899.391C901.126 665.784 903.058 663.712 905.186 662.648C907.313 661.585 909.861 661.053 912.828 661.053C917.419 661.053 920.961 662.382 923.452 665.042C926 667.841 927.273 672.125 927.273 677.892V698.216C927.273 700.735 927.833 702.401 928.953 703.213C930.101 703.997 931.739 704.389 933.866 704.389H934.16V708H919.169V678.312C919.169 674.56 918.469 671.663 917.069 669.619C915.67 667.576 913.22 666.554 909.721 666.554C907.761 666.554 906.109 666.932 904.766 667.688C903.45 668.443 902.386 669.465 901.574 670.753C900.762 672.041 900.174 673.524 899.811 675.204C899.475 676.884 899.307 678.647 899.307 680.495V698.636C899.307 701.015 899.951 702.569 901.238 703.297C902.526 704.025 904.234 704.389 906.361 704.389ZM981.485 684.862C981.485 692.953 979.764 698.972 976.32 702.919C972.905 706.866 967.894 708.84 961.287 708.84C954.96 708.84 950.089 706.866 946.674 702.919C944.966 700.931 943.65 698.44 942.727 695.444C941.803 692.421 941.341 688.894 941.341 684.862C941.341 676.828 943.035 670.851 946.422 666.932C949.837 663.012 954.876 661.053 961.539 661.053C967.922 661.053 972.807 662.998 976.194 666.89C977.93 668.849 979.246 671.327 980.142 674.322C981.037 677.318 981.485 680.831 981.485 684.862ZM949.655 684.862C949.655 688.054 949.865 690.867 950.285 693.303C950.705 695.71 951.391 697.74 952.343 699.392C954.218 702.723 957.256 704.389 961.455 704.389C965.626 704.389 968.65 702.723 970.525 699.392C971.449 697.74 972.107 695.71 972.499 693.303C972.919 690.867 973.129 688.054 973.129 684.862C973.129 681.671 972.919 678.871 972.499 676.464C972.079 674.056 971.407 672.041 970.483 670.417C968.608 667.198 965.57 665.588 961.371 665.588C957.2 665.588 954.176 667.198 952.301 670.417C951.377 672.041 950.705 674.056 950.285 676.464C949.865 678.871 949.655 681.671 949.655 684.862ZM987.364 708V704.389H988.456C990.612 704.389 992.319 703.997 993.579 703.213C994.867 702.429 995.511 700.763 995.511 698.216V652.108C995.511 649.701 994.853 648.133 993.537 647.405C992.221 646.649 990.528 646.271 988.456 646.271H987.364V642.66H1003.62V698.216C1003.62 700.735 1004.25 702.401 1005.5 703.213C1006.79 703.997 1008.51 704.389 1010.67 704.389H1011.76V708H987.364ZM1057.83 684.862C1057.83 692.953 1056.11 698.972 1052.66 702.919C1049.25 706.866 1044.24 708.84 1037.63 708.84C1031.3 708.84 1026.43 706.866 1023.02 702.919C1021.31 700.931 1019.99 698.44 1019.07 695.444C1018.14 692.421 1017.68 688.894 1017.68 684.862C1017.68 676.828 1019.38 670.851 1022.76 666.932C1026.18 663.012 1031.22 661.053 1037.88 661.053C1044.26 661.053 1049.15 662.998 1052.54 666.89C1054.27 668.849 1055.59 671.327 1056.48 674.322C1057.38 677.318 1057.83 680.831 1057.83 684.862ZM1026 684.862C1026 688.054 1026.21 690.867 1026.63 693.303C1027.05 695.71 1027.73 697.74 1028.68 699.392C1030.56 702.723 1033.6 704.389 1037.8 704.389C1041.97 704.389 1044.99 702.723 1046.87 699.392C1047.79 697.74 1048.45 695.71 1048.84 693.303C1049.26 690.867 1049.47 688.054 1049.47 684.862C1049.47 681.671 1049.26 678.871 1048.84 676.464C1048.42 674.056 1047.75 672.041 1046.83 670.417C1044.95 667.198 1041.91 665.588 1037.71 665.588C1033.54 665.588 1030.52 667.198 1028.64 670.417C1027.72 672.041 1027.05 674.056 1026.63 676.464C1026.21 678.871 1026 681.671 1026 684.862ZM1107.8 663.698C1107.8 664.986 1107.41 666.064 1106.62 666.932C1105.87 667.771 1104.75 668.191 1103.26 668.191C1103.26 667.408 1103.05 666.722 1102.63 666.134C1102.21 665.546 1101.47 665.252 1100.41 665.252C1099.06 665.252 1097.83 665.602 1096.71 666.302C1097.69 667.506 1098.49 668.933 1099.11 670.585C1099.75 672.209 1100.07 674.252 1100.07 676.716C1100.07 681.083 1098.8 684.61 1096.25 687.298C1094.96 688.614 1093.34 689.649 1091.38 690.405C1089.45 691.133 1087.18 691.497 1084.58 691.497C1083.88 691.497 1083.06 691.469 1082.14 691.413C1081.22 691.329 1080.54 691.273 1080.12 691.245C1079.01 691.805 1078.03 692.505 1077.19 693.345C1076.37 694.157 1075.97 695.206 1075.97 696.494C1075.97 697.894 1076.47 698.79 1077.48 699.182C1078.49 699.546 1079.76 699.728 1081.3 699.728H1091.04C1093.62 699.728 1095.8 700.049 1097.59 700.693C1099.41 701.309 1100.88 702.191 1102 703.339C1103.15 704.459 1103.98 705.816 1104.48 707.412C1104.98 709.008 1105.24 710.729 1105.24 712.577C1105.24 715.041 1104.77 717.266 1103.85 719.254C1102.95 721.242 1101.57 722.935 1099.69 724.335C1097.82 725.707 1095.44 726.771 1092.55 727.526C1089.7 728.282 1086.33 728.66 1082.43 728.66C1076.44 728.66 1071.96 727.554 1069 725.343C1066.03 723.131 1064.55 720.052 1064.55 716.104C1064.55 712.885 1065.6 710.366 1067.7 708.546C1069.79 706.754 1072.33 705.592 1075.3 705.061C1074.04 704.501 1072.93 703.619 1071.98 702.415C1071.03 701.183 1070.55 699.714 1070.55 698.006C1070.55 696.298 1071 694.828 1071.89 693.597C1072.79 692.337 1074.22 691.119 1076.18 689.943C1073.71 688.936 1071.8 687.228 1070.42 684.82C1069.08 682.413 1068.41 679.795 1068.41 676.968C1068.41 671.901 1069.75 668.009 1072.44 665.294C1073.78 663.922 1075.46 662.872 1077.48 662.145C1079.5 661.417 1081.86 661.053 1084.58 661.053C1086.45 661.053 1088.33 661.319 1090.2 661.851C1092.08 662.382 1093.48 663.054 1094.4 663.866C1095.38 662.802 1096.56 661.767 1097.93 660.759C1099.3 659.751 1100.9 659.247 1102.72 659.247C1104.34 659.247 1105.59 659.667 1106.45 660.507C1107.35 661.347 1107.8 662.41 1107.8 663.698ZM1076.51 676.716C1076.51 680.383 1077.12 683.071 1078.32 684.778C1079.55 686.486 1081.55 687.34 1084.32 687.34C1087.26 687.34 1089.27 686.444 1090.33 684.652C1091.42 682.833 1091.97 680.145 1091.97 676.59C1091.97 672.727 1091.38 669.871 1090.2 668.023C1089.03 666.176 1087.04 665.252 1084.24 665.252C1081.47 665.252 1079.48 666.204 1078.28 668.107C1077.1 669.983 1076.51 672.853 1076.51 676.716ZM1071.52 715.559C1071.52 716.818 1071.68 717.994 1072.02 719.086C1072.36 720.178 1072.94 721.116 1073.78 721.899C1074.62 722.683 1075.76 723.299 1077.19 723.747C1078.61 724.195 1080.42 724.419 1082.6 724.419C1085.68 724.419 1088.22 724.153 1090.2 723.621C1092.22 723.117 1093.81 722.403 1094.99 721.479C1096.17 720.556 1096.99 719.45 1097.47 718.162C1097.94 716.902 1098.18 715.517 1098.18 714.005C1098.18 711.373 1097.43 709.61 1095.91 708.714C1094.43 707.846 1092.26 707.412 1089.41 707.412H1080.96C1078.28 707.412 1076.02 707.958 1074.2 709.05C1072.41 710.17 1071.52 712.339 1071.52 715.559ZM1139.54 665.504V661.893H1157.43V665.504H1157.18C1155.33 665.504 1154 666.008 1153.19 667.016C1152.41 667.995 1151.55 669.731 1150.63 672.223L1137.57 708.336C1137.07 709.708 1136.58 710.995 1136.1 712.199C1135.62 713.431 1135.16 714.579 1134.71 715.643C1132.92 719.842 1130.92 722.879 1128.71 724.755C1127.51 725.735 1126.18 726.519 1124.72 727.106C1123.24 727.694 1121.53 728.1 1119.6 728.324C1117.67 728.548 1115.43 728.66 1112.88 728.66H1112.12V724.587C1115.03 724.587 1117.54 724.153 1119.64 723.285C1121.74 722.417 1123.56 721.228 1125.1 719.716C1126.61 718.204 1127.87 716.412 1128.88 714.341C1129.91 712.297 1130.78 710.072 1131.48 707.664L1115.57 670.081C1114.81 668.345 1114.03 667.156 1113.21 666.512C1112.4 665.84 1111.14 665.504 1109.44 665.504H1109.18V661.893H1129.84V665.504H1129.59C1126.15 665.504 1124.43 666.89 1124.43 669.661C1124.43 670.613 1124.65 671.663 1125.1 672.811L1131.4 688.138C1131.85 689.257 1132.36 690.629 1132.95 692.253C1133.54 693.877 1134.07 695.458 1134.55 696.998C1135.05 698.51 1135.37 699.714 1135.51 700.609H1135.76C1136.07 699.35 1136.49 697.824 1137.02 696.032C1137.58 694.213 1138.23 692.267 1138.96 690.195L1144.71 673.44C1145.21 672.041 1145.46 670.809 1145.46 669.745C1145.46 666.918 1143.58 665.504 1139.8 665.504H1139.54Z" fill="#EAEAEA"/>
<path d="M626.567 684.862C626.567 692.953 624.846 698.972 621.402 702.919C617.987 706.866 612.976 708.84 606.369 708.84C600.042 708.84 595.171 706.866 591.756 702.919C590.048 700.931 588.732 698.44 587.809 695.444C586.885 692.421 586.423 688.894 586.423 684.862C586.423 676.828 588.117 670.851 591.504 666.932C594.919 663.012 599.958 661.053 606.621 661.053C613.004 661.053 617.889 662.998 621.276 666.89C623.012 668.849 624.328 671.327 625.224 674.322C626.119 677.318 626.567 680.831 626.567 684.862ZM594.737 684.862C594.737 688.054 594.947 690.867 595.367 693.303C595.787 695.71 596.473 697.74 597.425 699.392C599.3 702.723 602.338 704.389 606.537 704.389C610.708 704.389 613.732 702.723 615.607 699.392C616.531 697.74 617.189 695.71 617.581 693.303C618.001 690.867 618.211 688.054 618.211 684.862C618.211 681.671 618.001 678.871 617.581 676.464C617.161 674.056 616.489 672.041 615.565 670.417C613.69 667.198 610.652 665.588 606.453 665.588C602.282 665.588 599.258 667.198 597.383 670.417C596.459 672.041 595.787 674.056 595.367 676.464C594.947 678.871 594.737 681.671 594.737 684.862ZM656.928 704.389H660.203V708H633.622V704.389H634.756C636.911 704.389 638.619 703.997 639.879 703.213C641.167 702.429 641.811 700.763 641.811 698.216V665.966H633.958V661.893H641.811V657.609C641.811 652.542 643.168 648.623 645.884 645.852C648.543 643.136 652.253 641.778 657.012 641.778C659.251 641.778 661.141 641.932 662.681 642.24C664.22 642.52 665.466 642.926 666.418 643.458C668.182 644.466 669.063 645.908 669.063 647.783C669.063 649.379 668.378 650.583 667.006 651.395C665.662 652.206 663.996 652.612 662.009 652.612C662.009 650.737 661.575 649.127 660.707 647.783C659.867 646.411 658.411 645.726 656.34 645.726C653.792 645.726 652.071 646.719 651.175 648.707C650.307 650.695 649.873 653.396 649.873 656.812V661.893H662.009V665.966H649.873V698.216C649.873 700.763 650.517 702.429 651.805 703.213C653.092 703.997 654.8 704.389 656.928 704.389Z" fill="#5E5E5E"/>
<path d="M316.749 650.891H302.64V675.75H323.384V679.949H302.64V698.216C302.64 700.763 303.284 702.429 304.571 703.213C305.859 703.997 307.567 704.389 309.694 704.389H312.55V708H285.801V704.389H286.893C289.02 704.389 290.728 704.025 292.016 703.297C293.303 702.569 293.947 701.015 293.947 698.636V656.056C293.947 653.648 293.289 652.08 291.974 651.353C290.658 650.597 288.964 650.219 286.893 650.219H285.801V646.607H329.137L329.557 661.641H325.105L324.686 657.945C324.462 655.874 323.72 654.18 322.46 652.864C321.2 651.549 319.297 650.891 316.749 650.891ZM363.192 661.893H378.562V698.636C378.562 701.015 379.205 702.569 380.493 703.297C381.781 704.025 383.489 704.389 385.616 704.389H385.868V708H372.221L371.087 701.029H370.667C369.043 704.081 367.042 706.152 364.662 707.244C362.283 708.308 359.637 708.84 356.726 708.84C352.05 708.84 348.551 707.51 346.228 704.851C343.764 702.051 342.532 697.768 342.532 692.001V671.383C342.532 668.975 341.874 667.394 340.559 666.638C339.243 665.882 337.549 665.504 335.478 665.504H335.226V661.893H350.637V691.581C350.637 695.332 351.267 698.23 352.526 700.273C353.814 702.317 356.194 703.339 359.665 703.339C361.569 703.339 363.206 703.003 364.578 702.331C365.95 701.631 367.07 700.679 367.938 699.476C368.833 698.244 369.477 696.788 369.869 695.108C370.289 693.401 370.499 691.511 370.499 689.439V671.719C370.499 669.143 369.855 667.464 368.567 666.68C367.308 665.896 365.6 665.504 363.444 665.504H363.192V661.893ZM410.644 704.305C411.679 704.305 412.631 704.249 413.499 704.137C414.367 704.025 415.249 703.885 416.145 703.717V707.496C415.361 707.86 414.199 708.168 412.659 708.42C411.147 708.7 409.762 708.84 408.502 708.84C404.107 708.84 400.943 707.86 399.012 705.9C397.024 703.885 396.03 700.427 396.03 695.528V666.806H389.479V663.362C390.515 663.362 391.649 663.152 392.881 662.732C394.141 662.312 395.246 661.613 396.198 660.633C397.178 659.569 397.962 658.309 398.55 656.854C399.166 655.37 399.698 653.522 400.146 651.311H404.093V661.893H415.347V666.806H404.093V695.78C404.093 698.72 404.681 700.875 405.856 702.247C407.06 703.619 408.656 704.305 410.644 704.305ZM448.101 661.893H463.47V698.636C463.47 701.015 464.114 702.569 465.401 703.297C466.689 704.025 468.397 704.389 470.524 704.389H470.776V708H457.129L455.995 701.029H455.575C453.951 704.081 451.95 706.152 449.57 707.244C447.191 708.308 444.545 708.84 441.634 708.84C436.959 708.84 433.459 707.51 431.136 704.851C428.672 702.051 427.44 697.768 427.44 692.001V671.383C427.44 668.975 426.783 667.394 425.467 666.638C424.151 665.882 422.457 665.504 420.386 665.504H420.134V661.893H435.545V691.581C435.545 695.332 436.175 698.23 437.435 700.273C438.722 702.317 441.102 703.339 444.573 703.339C446.477 703.339 448.115 703.003 449.486 702.331C450.858 701.631 451.978 700.679 452.846 699.476C453.742 698.244 454.385 696.788 454.777 695.108C455.197 693.401 455.407 691.511 455.407 689.439V671.719C455.407 669.143 454.763 667.464 453.476 666.68C452.216 665.896 450.508 665.504 448.353 665.504H448.101V661.893ZM498.029 704.389H500.423V708H475.605V704.389H475.857C478.013 704.389 479.721 703.997 480.98 703.213C482.268 702.429 482.912 700.763 482.912 698.216V671.383C482.912 668.975 482.254 667.394 480.938 666.638C479.623 665.882 477.929 665.504 475.857 665.504H475.605V661.893H488.833L490.471 670.417H490.891C491.73 668.513 492.584 666.862 493.452 665.462C494.348 664.062 495.51 662.984 496.938 662.229C498.365 661.445 500.283 661.053 502.69 661.053C508.877 661.053 511.971 663.138 511.971 667.31C511.971 671.397 509.297 673.44 503.95 673.44C503.95 671.061 503.614 669.353 502.942 668.317C502.271 667.254 501.095 666.722 499.415 666.722C498.351 666.722 497.399 667.016 496.56 667.604C494.936 668.779 493.676 670.725 492.78 673.44C492.332 674.672 491.982 675.988 491.73 677.388C491.451 678.759 491.255 680.117 491.143 681.461C491.031 682.805 490.975 684.022 490.975 685.114V698.636C490.975 701.015 491.618 702.569 492.906 703.297C494.194 704.025 495.902 704.389 498.029 704.389ZM538.006 708.84C531.707 708.84 526.822 706.782 523.351 702.667C521.643 700.651 520.327 698.188 519.403 695.276C518.507 692.337 518.06 689.006 518.06 685.282C518.06 677.248 519.711 671.201 523.015 667.142C526.318 663.082 531.021 661.053 537.124 661.053C542.807 661.053 547.174 662.774 550.226 666.218C551.765 667.925 552.941 670.067 553.753 672.643C554.593 675.218 555.013 678.2 555.013 681.587V685.534H526.374C526.486 691.749 527.634 696.298 529.817 699.182C531.917 702.009 535.038 703.423 539.182 703.423C541.897 703.423 544.347 702.849 546.53 701.701C548.742 700.553 550.394 699.126 551.485 697.418C551.877 697.586 552.241 697.936 552.577 698.468C552.941 699 553.123 699.63 553.123 700.357C553.123 701.225 552.815 702.163 552.199 703.171C551.583 704.151 550.646 705.061 549.386 705.9C548.126 706.74 546.544 707.44 544.641 708C542.765 708.56 540.553 708.84 538.006 708.84ZM536.956 665.672C533.765 665.672 531.301 666.974 529.565 669.577C527.858 672.153 526.85 675.932 526.542 680.915H546.32C546.32 678.647 546.152 676.576 545.816 674.7C545.48 672.825 544.949 671.215 544.221 669.871C543.493 668.527 542.527 667.492 541.323 666.764C540.147 666.036 538.692 665.672 536.956 665.672ZM724.367 650.891H716.011V698.216C716.011 700.763 716.655 702.429 717.942 703.213C719.23 703.997 720.938 704.389 723.065 704.389H725.039V708H698.29V704.389H700.264C702.391 704.389 704.099 704.025 705.387 703.297C706.674 702.569 707.318 701.015 707.318 698.636V650.891H699.088C696.68 650.891 694.959 651.549 693.923 652.864C692.915 654.18 692.285 655.874 692.033 657.945L691.571 661.641H687.12L687.54 646.607H735.957L736.377 661.641H731.926L731.506 657.945C731.254 655.874 730.61 654.18 729.574 652.864C728.538 651.549 726.803 650.891 724.367 650.891ZM762.832 708.84C756.533 708.84 751.648 706.782 748.177 702.667C746.469 700.651 745.153 698.188 744.229 695.276C743.334 692.337 742.886 689.006 742.886 685.282C742.886 677.248 744.537 671.201 747.841 667.142C751.144 663.082 755.847 661.053 761.95 661.053C767.633 661.053 772 662.774 775.052 666.218C776.591 667.925 777.767 670.067 778.579 672.643C779.419 675.218 779.839 678.2 779.839 681.587V685.534H751.2C751.312 691.749 752.46 696.298 754.644 699.182C756.743 702.009 759.865 703.423 764.008 703.423C766.723 703.423 769.173 702.849 771.356 701.701C773.568 700.553 775.22 699.126 776.312 697.418C776.703 697.586 777.067 697.936 777.403 698.468C777.767 699 777.949 699.63 777.949 700.357C777.949 701.225 777.641 702.163 777.025 703.171C776.41 704.151 775.472 705.061 774.212 705.9C772.952 706.74 771.37 707.44 769.467 708C767.591 708.56 765.38 708.84 762.832 708.84ZM761.782 665.672C758.591 665.672 756.127 666.974 754.392 669.577C752.684 672.153 751.676 675.932 751.368 680.915H771.146C771.146 678.647 770.979 676.576 770.643 674.7C770.307 672.825 769.775 671.215 769.047 669.871C768.319 668.527 767.353 667.492 766.149 666.764C764.974 666.036 763.518 665.672 761.782 665.672ZM808.52 708.84C805.664 708.84 803.033 708.406 800.625 707.538C798.217 706.642 796.146 705.243 794.41 703.339C792.674 701.435 791.317 699 790.337 696.032C789.385 693.037 788.909 689.425 788.909 685.198C788.909 680.607 789.399 676.772 790.379 673.692C791.359 670.585 792.702 668.093 794.41 666.218C796.146 664.342 798.175 663.012 800.499 662.229C802.823 661.445 805.342 661.053 808.058 661.053C809.849 661.053 811.627 661.235 813.391 661.599C815.182 661.935 816.792 662.466 818.22 663.194C819.647 663.922 820.809 664.846 821.705 665.966C822.601 667.058 823.049 668.345 823.049 669.829C823.049 671.817 822.405 673.216 821.117 674.028C819.829 674.84 817.912 675.246 815.364 675.246C815.364 672.419 814.846 670.067 813.811 668.191C812.803 666.288 810.885 665.336 808.058 665.336C806.406 665.336 804.908 665.644 803.564 666.26C802.249 666.876 801.115 667.939 800.163 669.451C799.211 670.963 798.483 672.993 797.979 675.54C797.476 678.088 797.224 681.279 797.224 685.114C797.224 691.217 798.231 695.766 800.247 698.762C802.291 701.757 805.622 703.255 810.241 703.255C812.901 703.255 815.224 702.695 817.212 701.575C819.2 700.455 820.683 699.014 821.663 697.25C822.083 697.586 822.433 698.034 822.713 698.594C822.993 699.154 823.133 699.826 823.133 700.609C823.133 701.589 822.825 702.569 822.209 703.549C821.621 704.529 820.711 705.41 819.479 706.194C818.276 706.978 816.75 707.608 814.902 708.084C813.083 708.588 810.955 708.84 808.52 708.84Z" fill="#4E4E4E"/>
</svg>
