<svg width="225" height="219" viewBox="0 0 225 219" fill="none" xmlns="http://www.w3.org/2000/svg">
<path d="M112.5 188.203C157.157 188.203 193.359 152.967 193.359 109.5C193.359 66.0335 157.157 30.7969 112.5 30.7969C67.8426 30.7969 31.6406 66.0335 31.6406 109.5C31.6406 152.967 67.8426 188.203 112.5 188.203Z" fill="#9C34C2"/>
<path opacity="0.3" d="M112.5 219C149.391 219 179.297 214.404 179.297 208.734C179.297 203.065 149.391 198.469 112.5 198.469C75.6091 198.469 45.7031 203.065 45.7031 208.734C45.7031 214.404 75.6091 219 112.5 219Z" fill="black"/>
<path opacity="0.3" d="M112.5 47.9062C121.56 47.9062 128.932 41.2096 129.888 32.6413C124.284 31.447 118.473 30.7969 112.5 30.7969C67.841 30.7969 31.6406 66.0319 31.6406 109.5C31.6406 115.314 32.3086 120.97 33.5355 126.425C42.3422 125.494 49.2188 118.318 49.2188 109.5C49.2188 75.5379 77.6074 47.9062 112.5 47.9062Z" fill="white"/>
<path d="M52.8996 80.1641C59.502 67.5066 70.2387 57.2205 83.366 51.0029" stroke="white" stroke-width="4.6875" stroke-miterlimit="10" stroke-linecap="round" stroke-linejoin="round"/>
<path d="M130.725 147.521C146.742 144.03 158.21 135.048 158.21 115.861C158.21 106.965 155.443 100.271 151.284 95.2925C150.325 94.1427 150.321 91.679 150.715 90.2486C151.703 86.6796 150.947 82.0225 150.117 78.6724C149.495 76.1745 146.812 74.7168 144.274 75.4251C138.273 77.1052 133.323 80.4416 129.727 82.7342C128.746 83.357 127.61 83.6068 126.454 83.4289C122.08 82.7547 117.38 82.4639 112.518 82.3954L112.5 82.5118V82.3989C107.638 82.4673 102.937 82.7582 98.5641 83.4323C97.4074 83.6102 96.2719 83.3604 95.291 82.7376C91.6945 80.4484 86.7445 77.1121 80.7434 75.4285C78.2086 74.7168 75.5227 76.1779 74.9004 78.6759C74.0672 82.0259 73.3148 86.6865 74.3027 90.2521C74.7 91.6824 74.6965 94.1462 73.7332 95.2959C69.5742 100.275 66.8074 106.965 66.8074 115.865C66.8074 135.051 78.2719 144.034 94.2926 147.524C97.0137 148.116 97.2562 151.007 96.2051 153.523C95.3754 155.514 94.9113 156.975 94.9113 159.261V160.339C94.3207 160.496 93.709 160.637 93.048 160.719C89.0332 161.222 86.0871 160.719 84.0516 159.545C82.0125 158.371 79.5973 156.435 77.7832 153.858C76.2539 151.685 72.9492 147.004 65.141 147.189C63.7769 147.154 63.1547 148.4 63.3269 149.177C63.4816 149.861 64.1004 150.942 66.5754 151.822C69.0574 152.708 70.6852 154.518 72.0457 156.65C73.5609 159.028 74.482 163.983 79.766 167.662C82.9336 169.865 87.0715 171.207 90.1512 171.07C92.7598 170.954 94.9148 173.034 94.9148 175.577L94.9184 181.147C94.9184 183.402 92.7984 185.685 90.6012 185.288C97.1191 187.423 105.117 188.07 112.5 188.162V188.001L112.518 188.162C119.9 188.073 127.898 187.423 134.416 185.288C132.219 185.681 130.099 183.399 130.099 181.147L130.106 159.261C130.106 156.975 129.642 155.514 128.812 153.523C127.765 151.007 128.004 148.116 130.725 147.521Z" fill="#A0EFFE"/>
<path opacity="0.15" d="M191.464 92.5754C182.658 93.5062 175.781 100.682 175.781 109.5C175.781 143.462 147.393 171.094 112.5 171.094C103.44 171.094 96.068 177.79 95.1117 186.359C100.716 187.553 106.527 188.203 112.5 188.203C157.159 188.203 193.359 152.968 193.359 109.5C193.359 103.686 192.691 98.0299 191.464 92.5754Z" fill="black"/>
</svg>
