<svg width="186" height="168" viewBox="0 0 186 168" fill="none" xmlns="http://www.w3.org/2000/svg">
<path d="M158.875 17.5H27.125L38.75 136.5L93 150.5L147.25 136.5L158.875 17.5Z" fill="#E65100"/>
<path d="M93 28V139.65L136.4 128.45L146.088 28H93Z" fill="#FF6D00"/>
<path d="M93 87.5V73.5H126.325L123.613 113.75L93 122.85V108.15L108.888 103.25L110.05 87.5H93ZM127.488 59.5L128.65 45.5H93V59.5H127.488Z" fill="white"/>
<path d="M93 108.15V122.85L62.3875 113.75L60.8375 94.5H76.3375L77.1125 103.25L93 108.15ZM74.0125 59.5H93V45.5H57.7375L60.45 87.5H93V73.5H75.175L74.0125 59.5Z" fill="#EEEEEE"/>
</svg>
