<svg width="185" height="185" viewBox="0 0 185 185" fill="none" xmlns="http://www.w3.org/2000/svg">
<path d="M92.5 109.844C102.079 109.844 109.844 102.079 109.844 92.5C109.844 82.9213 102.079 75.1562 92.5 75.1562C82.9213 75.1562 75.1562 82.9213 75.1562 92.5C75.1562 102.079 82.9213 109.844 92.5 109.844Z" fill="url(#paint0_linear_24_59)"/>
<path d="M167.656 92.5001C167.656 81.6371 155.391 72.2165 136.284 66.5076C136.923 63.5273 137.461 60.5962 137.799 57.7923C139.698 41.943 136.403 30.843 128.517 26.536C120.629 22.2319 109.514 25.4607 97.2088 35.6299C95.6363 36.9278 94.0667 38.3413 92.5 39.8213C90.9333 38.3384 89.3637 36.9278 87.7912 35.6299C75.4858 25.4607 64.3656 22.2348 56.4828 26.536C48.5972 30.8401 45.3019 41.9401 47.201 57.7923C47.5363 60.5991 48.0769 63.5273 48.7157 66.5076C29.6087 72.2165 17.3438 81.6371 17.3438 92.5001C17.3438 103.363 29.6087 112.784 48.7157 118.493C48.0769 121.473 47.5392 124.404 47.201 127.208C45.3019 143.057 48.5972 154.157 56.4828 158.464C58.7635 159.71 61.3102 160.323 64.0794 160.323C70.8926 160.323 79.0441 156.603 87.7912 149.373C89.3637 148.075 90.9333 146.662 92.5 145.182C94.0667 146.665 95.6363 148.075 97.2088 149.373C105.956 156.603 114.107 160.323 120.921 160.323C123.69 160.323 126.239 159.707 128.517 158.464C136.403 154.16 139.698 143.06 137.799 127.208C137.464 124.401 136.923 121.473 136.284 118.493C155.391 112.784 167.656 103.363 167.656 92.5001ZM100.889 40.0815C111.092 31.6495 120.155 28.5565 125.745 31.609C131.336 34.6587 133.634 43.952 132.058 57.0986C131.755 59.6394 131.269 62.2901 130.702 64.9871C124.583 63.4869 117.897 62.3422 110.78 61.6166C106.259 55.0405 101.487 49.0395 96.5931 43.8913C98.0211 42.5443 99.4548 41.2666 100.889 40.0815ZM115.333 104.967C112.867 109.482 110.246 113.798 107.523 117.9C102.75 118.299 97.7349 118.516 92.5 118.516C87.2651 118.516 82.2498 118.299 77.4745 117.9C74.7545 113.795 72.1298 109.482 69.6641 104.967C67.3978 100.819 65.331 96.6481 63.4723 92.5001C65.331 88.3549 67.3978 84.1837 69.6641 80.0328C72.1298 75.5176 74.7516 71.2019 77.4745 67.1001C82.2498 66.7012 87.2651 66.4844 92.5 66.4844C97.7349 66.4844 102.75 66.7012 107.525 67.1001C110.246 71.2048 112.87 75.5176 115.336 80.0328C117.602 84.1808 119.669 88.352 121.528 92.5001C119.669 96.6452 117.599 100.816 115.333 104.967ZM124.522 99.689C126.488 104.716 128.101 109.644 129.367 114.42C124.904 115.507 120.088 116.426 114.888 117.105C116.787 114.07 118.646 110.965 120.406 107.737C121.872 105.063 123.224 102.374 124.522 99.689ZM92.5 137.024C88.8231 133.148 85.2098 128.748 81.7209 123.979C85.2359 124.184 88.8289 124.297 92.5 124.297C96.1711 124.297 99.7641 124.184 103.279 123.979C99.7902 128.748 96.1769 133.148 92.5 137.024ZM70.1092 117.105C64.909 116.426 60.0932 115.507 55.6301 114.42C56.8962 109.644 58.5091 104.713 60.4748 99.689C61.7755 102.377 63.1284 105.063 64.5881 107.739C66.3514 110.965 68.2101 114.07 70.1092 117.105ZM60.4777 85.3111C58.512 80.2843 56.8991 75.3529 55.633 70.5805C60.0961 69.4936 64.9119 68.5744 70.1121 67.8951C68.213 70.9302 66.3543 74.0348 64.5939 77.2636C63.1284 79.9374 61.7756 82.6257 60.4777 85.3111ZM92.5 47.9758C96.1769 51.8521 99.7902 56.2516 103.279 61.0212C99.7641 60.8159 96.1711 60.7032 92.5 60.7032C88.8289 60.7032 85.2359 60.8159 81.7209 61.0212C85.2098 56.2516 88.8231 51.8521 92.5 47.9758ZM120.409 77.2636C118.649 74.0376 116.79 70.9331 114.891 67.8951C120.091 68.5744 124.907 69.4936 129.37 70.5805C128.104 75.3558 126.491 80.2872 124.525 85.3111C123.224 82.6257 121.872 79.9374 120.409 77.2636ZM52.9418 57.1015C51.3635 43.952 53.6645 34.6587 59.2549 31.6119C60.6656 30.8401 62.2988 30.4644 64.1141 30.4644C69.4906 30.4644 76.4802 33.7799 84.1114 40.0844C85.5452 41.2695 86.9818 42.5472 88.4127 43.8971C83.5188 49.0453 78.7435 55.0433 74.2255 61.6224C67.1059 62.348 60.4198 63.4955 54.3033 64.9929C53.7309 62.293 53.2482 59.6423 52.9418 57.1015ZM23.125 92.5001C23.125 84.9844 33.1555 77.1711 50.0569 72.0923C51.8087 78.68 54.2108 85.5452 57.1997 92.5001C54.2108 99.4578 51.8087 106.323 50.0569 112.908C33.1555 107.829 23.125 100.016 23.125 92.5001ZM84.1114 144.919C73.9075 153.351 64.8541 156.449 59.2549 153.391C53.6645 150.341 51.3664 141.048 52.9418 127.902C53.2453 125.361 53.7309 122.71 54.2975 120.013C60.417 121.513 67.103 122.658 74.2197 123.383C78.7406 129.96 83.513 135.961 88.4069 141.109C86.9789 142.456 85.5452 143.733 84.1114 144.919ZM132.058 127.899C133.636 141.048 131.336 150.341 125.745 153.388C120.155 156.449 111.095 153.348 100.889 144.916C99.4548 143.731 98.0182 142.453 96.5873 141.103C101.481 135.955 106.256 129.957 110.775 123.378C117.894 122.652 124.58 121.505 130.697 120.007C131.269 122.707 131.752 125.358 132.058 127.899ZM134.943 112.908C133.191 106.32 130.789 99.4549 127.8 92.5001C130.789 85.5423 133.191 78.6771 134.943 72.0923C151.845 77.1711 161.875 84.9844 161.875 92.5001C161.875 100.016 151.845 107.829 134.943 112.908Z" fill="url(#paint1_linear_24_59)"/>
<defs>
<linearGradient id="paint0_linear_24_59" x1="92.5" y1="72.8813" x2="92.5" y2="106.15" gradientUnits="userSpaceOnUse">
<stop stop-color="#6DC7FF"/>
<stop offset="1" stop-color="#E6ABFF"/>
</linearGradient>
<linearGradient id="paint1_linear_24_59" x1="92.5" y1="21.4658" x2="92.5" y2="154.475" gradientUnits="userSpaceOnUse">
<stop stop-color="#1A6DFF"/>
<stop offset="1" stop-color="#C822FF"/>
</linearGradient>
</defs>
</svg>
