<svg width="197" height="197" viewBox="0 0 197 197" fill="none" xmlns="http://www.w3.org/2000/svg">
<path d="M168.271 20.5208H28.7292L41.0417 160.062L98.5 176.479L155.958 160.062L168.271 20.5208Z" fill="#0277BD"/>
<path d="M98.5 32.8333V163.756L144.467 150.623L154.727 32.8333H98.5Z" fill="#039BE5"/>
<path d="M135.848 53.3542H98.5V69.7709H118.61L117.379 86.1876H98.5V102.604H116.558L115.327 121.073L98.5 126.819V144.056L130.923 133.385L133.796 86.1876L135.848 53.3542Z" fill="white"/>
<path d="M98.5 53.3542V69.7709H61.9729L60.7417 53.3542H98.5ZM79.6208 86.1876L80.4417 102.604H98.5V86.1876H79.6208ZM81.2625 110.813H64.8458L66.0771 133.385L98.5 144.056V126.819L81.6729 121.073L81.2625 110.813Z" fill="#EEEEEE"/>
</svg>
