<svg width="170" height="167" viewBox="0 0 170 167" fill="none" xmlns="http://www.w3.org/2000/svg">
<path d="M50.9504 61.703C48.2127 62.9068 45.5706 64.4654 43.6369 66.7165C41.3808 69.3467 40.251 72.725 39.4825 76.0789C38.3917 80.8349 37.9419 85.9075 39.5604 90.514C42.5319 98.9614 51.765 103.839 60.7396 105.29C69.7142 106.741 78.9083 105.586 87.9856 106.177C87.8156 106.177 86.9125 74.0958 86.8169 71.2289C86.7106 68.0559 88.0883 59.7025 84.9327 57.9872C81.4725 56.112 72.7033 57.521 68.8252 57.7611C62.7017 58.1438 56.5781 59.2293 50.9504 61.703Z" fill="#8A4581"/>
<path d="M89.2748 74.569C88.4248 76.6113 87.8298 78.7893 87.8723 80.9951C87.9254 83.6392 88.8852 86.186 90.0362 88.5761C93.1175 94.9709 97.5127 101.46 104.175 104.138C110.167 106.546 118.214 106.894 124.844 104.403C127.411 103.436 129.239 101.146 131.052 99.1145C135.054 94.6299 138.245 89.018 138.047 83.0582C137.955 80.2227 137.101 77.4637 136.113 74.7987C134.831 71.3404 133.28 67.9169 130.896 65.0779C127.801 61.3899 123.919 59.6608 119.138 59.372C115.026 59.125 111.516 57.8795 107.433 58.9824C99.4323 61.1464 92.4304 66.9949 89.2748 74.569Z" fill="#4B7BB2"/>
<path d="M88.5417 107.116C89.1862 115.689 89.6927 118.083 86.0342 136.098C85.2267 140.075 84.9823 144.264 82.9317 147.781C80.0452 152.732 74.4458 155.821 68.6871 156.562C62.9283 157.307 57.0456 155.915 51.7685 153.529C49.4417 152.474 47.1608 151.194 45.4396 149.326C43.0277 146.713 41.9262 143.199 41.0692 139.775C39.4329 133.245 38.4908 126.074 41.4517 120.01C44.2673 114.245 50.2421 110.463 56.5037 108.717C62.7654 106.974 69.3742 107.002 75.8838 107.04C80.1019 107.064 84.3235 107.092 88.5417 107.116Z" fill="#71C598"/>
<path d="M50.9504 61.703C48.2127 62.9068 45.5706 64.4654 43.6369 66.7165C41.3808 69.3467 40.251 72.725 39.4825 76.0789C38.3917 80.8349 37.9419 85.9075 39.5604 90.514C42.5319 98.9614 51.765 103.839 60.7396 105.29C69.7142 106.741 78.9083 105.586 87.9856 106.177C87.8156 106.177 86.9125 74.0958 86.8169 71.2289C86.7106 68.0559 88.0883 59.7025 84.9327 57.9872C81.4725 56.112 72.7033 57.521 68.8252 57.7611C62.7017 58.1438 56.5781 59.2293 50.9504 61.703Z" stroke="#010101" stroke-width="2.08333" stroke-miterlimit="10" stroke-linecap="round" stroke-linejoin="round"/>
<path d="M126.717 15.2214C120.293 11.777 113.712 9.35206 106.392 9.22681L88.7967 9.95047C90.5179 26.3547 89.721 43.3122 87.8758 59.7026C100.969 56.5122 115.972 60.8472 127.539 54.0246C134.374 49.9922 138.745 42.2197 138.578 34.3881C138.412 26.56 133.719 18.972 126.717 15.2214Z" fill="#ED488B"/>
<path d="M89.2748 74.569C88.4248 76.6113 87.8298 78.7893 87.8723 80.9951C87.9254 83.6392 88.8852 86.186 90.0362 88.5761C93.1175 94.9709 97.5127 101.46 104.175 104.138C110.167 106.546 118.214 106.894 124.844 104.403C127.411 103.436 129.239 101.146 131.052 99.1145C135.054 94.6299 138.245 89.018 138.047 83.0582C137.955 80.2227 137.101 77.4637 136.113 74.7987C134.831 71.3404 133.28 67.9169 130.896 65.0779C127.801 61.3899 123.919 59.6608 119.138 59.372C115.026 59.125 111.516 57.8795 107.433 58.9824C99.4323 61.1464 92.4304 66.9949 89.2748 74.569Z" stroke="#010101" stroke-width="2.08333" stroke-miterlimit="10" stroke-linecap="round" stroke-linejoin="round"/>
<path d="M83.4488 11.0881C76.7267 10.9768 69.9408 10.8689 63.3463 12.1423C56.7481 13.4157 50.2598 16.199 45.7123 21.0629C41.1648 25.9267 39.656 35.4249 41.7244 41.7117C43.474 47.0244 44.9013 50.761 49.5833 53.9306C52.6292 55.9937 56.8933 57.0409 60.2083 57.4097C64.639 57.9038 70.4402 58.3282 74.8992 58.4883C79.9425 58.6692 84.9823 58.8536 90.0256 59.0345L91.6973 11.2273C84.405 11.102 90.741 11.2099 83.4488 11.0881Z" fill="#ED2224"/>
<path d="M88.5417 107.116C89.1862 115.689 89.6927 118.083 86.0342 136.098C85.2267 140.075 84.9823 144.264 82.9317 147.781C80.0452 152.732 74.4458 155.821 68.6871 156.562C62.9283 157.307 57.0456 155.915 51.7685 153.529C49.4417 152.474 47.1608 151.194 45.4396 149.326C43.0277 146.713 41.9262 143.199 41.0692 139.775C39.4329 133.245 38.4908 126.074 41.4517 120.01C44.2673 114.245 50.2421 110.463 56.5038 108.717C62.7654 106.974 69.3742 107.002 75.8838 107.04C80.1019 107.064 84.3235 107.092 88.5417 107.116Z" stroke="#010101" stroke-width="2.08333" stroke-miterlimit="10" stroke-linecap="round" stroke-linejoin="round"/>
<path d="M88.5417 12.1771C90.2629 28.5814 89.721 43.3122 87.8758 59.7025C100.969 56.5121 115.972 60.8472 127.539 54.0245C134.374 49.9922 138.745 42.2197 138.578 34.3881C138.412 26.5565 133.719 18.9684 126.717 15.2179C120.293 11.7735 113.712 9.34506 106.392 9.22329C99.0994 9.10152 91.6938 9.76604 83.8454 9.94696C77.1233 10.1 69.9444 10.862 63.3463 12.1388C56.7481 13.4157 50.2598 16.1955 45.7123 21.0594C41.1648 25.9233 39.656 35.4214 41.7244 41.7083C43.474 47.021 44.9013 50.7576 49.5833 53.9271C52.6292 55.9902 56.8933 57.0375 60.2083 57.4063C64.639 57.9003 70.4402 58.3248 74.8992 58.4848C79.9425 58.6657 84.9823 58.8501 90.0256 59.031" stroke="#010101" stroke-width="2.08333" stroke-miterlimit="10" stroke-linecap="round" stroke-linejoin="round"/>
</svg>
