<svg width="165" height="165" viewBox="0 0 165 165" fill="none" xmlns="http://www.w3.org/2000/svg">
<path opacity="0.3" d="M82.5 165C110.977 165 134.062 161.537 134.062 157.266C134.062 152.994 110.977 149.531 82.5 149.531C54.0228 149.531 30.9375 152.994 30.9375 157.266C30.9375 161.537 54.0228 165 82.5 165Z" fill="black"/>
<path d="M139.219 51.5625V113.438C139.219 119.238 137.311 124.575 134.062 128.88V128.906C129.705 134.681 123.002 138.574 115.371 139.141C114.752 139.193 114.082 139.219 113.438 139.219H51.5625C37.3313 139.219 25.7812 127.669 25.7812 113.438V51.5625C25.7812 50.918 25.807 50.2477 25.8586 49.6289C26.4258 41.9977 30.3187 35.2945 36.0938 30.9375H36.1195C40.425 27.6891 45.7617 25.7812 51.5625 25.7812H113.438C127.669 25.7812 139.219 37.3313 139.219 51.5625Z" fill="#FFCE29"/>
<path opacity="0.3" d="M36.1195 30.9375H36.0938C30.3187 35.2945 26.4258 41.9977 25.8586 49.6289C25.807 50.2477 25.7812 50.918 25.7812 51.5625V82.5C32.8995 82.5 38.6719 76.7276 38.6719 69.6094V51.5625C38.6719 51.2841 38.6796 50.9927 38.7157 50.5828C38.9787 47.0379 40.7215 43.7508 43.5162 41.4949C43.6399 41.4098 43.7611 41.3196 43.8823 41.2294C46.0995 39.5562 48.7549 38.6719 51.5625 38.6719H67.0312C74.1495 38.6719 79.9219 32.8995 79.9219 25.7812H51.5625C45.7617 25.7812 40.425 27.6891 36.1195 30.9375Z" fill="white"/>
<path opacity="0.15" d="M139.219 113.438V72.1875C132.101 72.1875 126.328 77.9573 126.328 85.0781V113.438C126.328 120.545 120.545 126.328 113.438 126.328H85.0781C77.9599 126.328 72.1875 132.098 72.1875 139.219H113.438C127.676 139.219 139.219 127.676 139.219 113.438Z" fill="black"/>
<path d="M34.8047 60.5859V51.5625C34.8047 51.168 34.8176 50.7581 34.8511 50.3791C35.1991 45.7153 37.437 41.4588 41.0283 38.5352L41.5542 38.1433" stroke="white" stroke-width="4.6875" stroke-miterlimit="10" stroke-linecap="round" stroke-linejoin="round"/>
<path d="M73.3245 122.631C72.1566 122.664 71.2439 122.358 70.5891 121.703C69.9368 121.051 69.6094 120.207 69.6094 119.174C69.6094 118.385 69.8414 117.694 70.308 117.106C70.7695 116.521 71.4502 116.198 72.3473 116.126L73.8427 116.021C76.5987 115.853 77.9728 114.402 77.9728 111.684V89.4298C77.9728 88.1227 78.3183 87.1146 79.0066 86.4082C79.695 85.7018 80.6747 85.3486 81.9534 85.3486C84.6347 85.3486 85.9779 86.7099 85.9779 89.4298V111.584C85.9779 118.434 82.3634 122.082 75.1317 122.53L73.3245 122.631Z" fill="#9C34C2"/>
<path d="M106.268 122.786C104.066 122.786 101.859 122.546 99.6574 122.064C97.4557 121.584 95.5428 120.878 93.9263 119.947C92.9646 119.432 92.3588 118.738 92.119 117.859C91.8792 116.98 91.9308 116.126 92.2737 115.299C92.6192 114.476 93.1683 113.891 93.9263 113.546C94.6817 113.2 95.5943 113.285 96.6617 113.801C98.041 114.595 99.5749 115.18 101.258 115.557C102.945 115.936 104.615 116.124 106.268 116.124C108.748 116.124 110.529 115.737 111.612 114.964C112.698 114.185 113.239 113.216 113.239 112.043C113.239 111.047 112.86 110.253 112.105 109.668C111.344 109.083 110.022 108.583 108.124 108.173L102.292 106.933C95.7877 105.554 92.5315 102.181 92.5315 96.8111C92.5315 94.5088 93.1528 92.4824 94.3929 90.7422C95.633 89.0071 97.3603 87.6536 99.5827 86.6919C101.802 85.7303 104.373 85.2456 107.302 85.2456C109.227 85.2456 111.122 85.4776 112.979 85.9443C114.84 86.4058 116.475 87.0864 117.887 87.9836C118.746 88.4992 119.282 89.1721 119.488 89.9971C119.695 90.8247 119.635 91.6162 119.308 92.3767C118.98 93.1321 118.429 93.6658 117.655 93.9726C116.877 94.2845 115.923 94.1659 114.788 93.6116C113.649 93.0264 112.442 92.5984 111.171 92.3226C109.898 92.0493 108.591 91.9101 107.247 91.9101C105.079 91.9101 103.403 92.3303 102.212 93.1759C101.026 94.0215 100.431 95.1121 100.431 96.4527C100.431 97.453 100.792 98.26 101.519 98.8813C102.241 99.5001 103.499 100 105.288 100.377L111.12 101.617C117.797 103.063 121.138 106.335 121.138 111.429C121.138 113.698 120.525 115.691 119.305 117.392C118.083 119.099 116.359 120.422 114.141 121.368C111.924 122.311 109.3 122.786 106.268 122.786Z" fill="#9C34C2"/>
</svg>
