<svg width="205" height="205" viewBox="0 0 205 205" fill="none" xmlns="http://www.w3.org/2000/svg">
<path d="M102.5 186.781C149.047 186.781 186.781 149.047 186.781 102.5C186.781 55.9532 149.047 18.2195 102.5 18.2195C55.9531 18.2195 18.2194 55.9532 18.2194 102.5C18.2194 149.047 55.9531 186.781 102.5 186.781Z" fill="url(#paint0_linear_24_62)"/>
<path d="M81.2099 68.4487H68.2992V136.765H81.2099V68.4487Z" fill="white"/>
<path d="M136.615 68.1497H124.004V130.461H136.615V68.1497Z" fill="url(#paint1_linear_24_62)"/>
<path d="M157.086 162.693L145.926 166.947L68.2992 68.4487H83.3154L157.086 162.693Z" fill="url(#paint2_linear_24_62)"/>
<defs>
<linearGradient id="paint0_linear_24_62" x1="102.5" y1="186.781" x2="102.5" y2="18.2195" gradientUnits="userSpaceOnUse">
<stop stop-color="#0A070A"/>
<stop offset="0.465" stop-color="#2B2B2B"/>
<stop offset="1" stop-color="#4B4B4B"/>
</linearGradient>
<linearGradient id="paint1_linear_24_62" x1="130.312" y1="141.027" x2="130.312" y2="78.7157" gradientUnits="userSpaceOnUse">
<stop offset="0.377" stop-color="white" stop-opacity="0"/>
<stop offset="0.666" stop-color="white" stop-opacity="0.3"/>
<stop offset="0.988" stop-color="white"/>
</linearGradient>
<linearGradient id="paint2_linear_24_62" x1="94.394" y1="91.5796" x2="156.573" y2="173.093" gradientUnits="userSpaceOnUse">
<stop offset="0.296" stop-color="white"/>
<stop offset="0.521" stop-color="white" stop-opacity="0.5"/>
<stop offset="0.838" stop-color="white" stop-opacity="0"/>
</linearGradient>
</defs>
</svg>
