<svg width="397" height="397" viewBox="0 0 397 397" fill="none" xmlns="http://www.w3.org/2000/svg">
<g clip-path="url(#clip0_24_162)">
<path d="M142.291 158.155L101.706 180.61C100.185 181.446 99.25 183.001 99.25 184.68V229.615C99.25 231.294 100.185 232.841 101.706 233.684L142.3 256.156C143.813 256.991 145.691 256.991 147.204 256.156L187.789 233.684C189.295 232.841 190.229 231.294 190.229 229.615V184.68C190.229 183.001 189.295 181.454 187.773 180.61L147.196 158.155C146.435 157.733 145.583 157.526 144.74 157.526C143.888 157.526 143.044 157.733 142.283 158.155M351.105 198.608L344.34 202.346C344.083 202.487 343.934 202.743 343.934 203.024V210.518C343.934 210.799 344.091 211.055 344.34 211.196L351.105 214.943C351.362 215.083 351.668 215.083 351.924 214.943L358.689 211.196C358.938 211.055 359.095 210.799 359.095 210.518V203.024C359.095 202.743 358.938 202.487 358.681 202.346L351.916 198.608C351.792 198.533 351.651 198.5 351.51 198.5C351.37 198.5 351.229 198.533 351.105 198.608Z" fill="#388E3C"/>
<path d="M295.691 110.531L275.932 99.5064C275.311 99.159 274.55 99.1673 273.938 99.5312C273.326 99.8952 272.946 100.549 272.946 101.26L272.937 167.857L254.717 157.774C253.956 157.353 253.104 157.146 252.26 157.146C251.417 157.146 250.565 157.353 249.804 157.774H249.812L209.227 180.23C207.705 181.065 206.771 182.62 206.771 184.291V229.226C206.771 230.905 207.705 232.452 209.227 233.295L249.82 255.767C251.334 256.603 253.212 256.603 254.725 255.767L295.31 233.295C296.815 232.46 297.75 230.905 297.75 229.226V114.038C297.75 112.583 296.956 111.243 295.691 110.531ZM271.829 218.83L253.385 229.044C252.699 229.425 251.847 229.425 251.16 229.044L232.708 218.83C232.005 218.449 231.583 217.738 231.583 216.977V196.548C231.583 195.787 232.005 195.084 232.7 194.695L251.152 184.489C251.499 184.299 251.872 184.208 252.26 184.208C252.649 184.208 253.03 184.307 253.377 184.489L271.821 194.695C272.516 195.084 272.937 195.795 272.937 196.556V216.985C272.937 217.738 272.516 218.449 271.829 218.83Z" fill="#37474F"/>
<path d="M142.291 158.155L99.25 229.615C99.25 231.294 100.185 232.841 101.706 233.684L142.3 256.156C143.813 256.991 145.691 256.991 147.204 256.156L190.229 184.68C190.229 183.001 189.295 181.454 187.773 180.61L147.196 158.155C146.435 157.733 145.583 157.526 144.74 157.526C143.888 157.526 143.044 157.733 142.283 158.155" fill="#2E7D32"/>
<path d="M142.291 158.155L101.706 180.61C100.185 181.446 99.25 183.001 99.25 184.68L142.291 256.156C143.805 256.991 145.682 256.991 147.196 256.156L187.781 233.684C189.295 232.841 190.229 231.294 190.229 229.615L147.196 158.155C146.435 157.733 145.583 157.526 144.74 157.526C143.888 157.526 143.044 157.733 142.283 158.155" fill="#4CAF50"/>
<path d="M394.544 180.23L353.967 157.774C353.206 157.353 352.354 157.146 351.51 157.146C350.667 157.146 349.815 157.353 349.054 157.774L308.477 180.23C306.964 181.065 306.021 182.653 306.021 184.39V229.143C306.021 230.872 306.964 232.468 308.477 233.304L349.071 255.775C350.592 256.619 352.453 256.619 353.975 255.775L372.692 245.412C374.404 244.461 374.396 242.005 372.675 241.062L331.95 218.838C331.263 218.449 330.833 217.73 330.833 216.952V196.556C330.833 195.795 331.247 195.092 331.909 194.728L350.394 184.506H350.386C350.733 184.315 351.113 184.224 351.502 184.224C351.891 184.224 352.271 184.324 352.619 184.506L371.104 194.737C371.766 195.101 372.179 195.804 372.179 196.565V213.205C372.179 213.917 372.56 214.578 373.18 214.934C373.8 215.281 374.561 215.281 375.182 214.926L395.015 203.405C396.239 202.693 397 201.378 397 199.956V184.406C397 182.661 396.057 181.065 394.544 180.23ZM88.5227 180.23L47.946 157.774C47.1851 157.353 46.3332 157.146 45.4896 157.146C44.646 157.146 43.7941 157.353 43.0331 157.774L2.45644 180.23C0.942875 181.065 0 182.653 0 184.39V246.132C0 246.843 0.380458 247.505 1.00077 247.86C1.62108 248.208 2.382 248.208 3.00231 247.852L22.8358 236.331C24.0599 235.619 24.8125 234.304 24.8125 232.882V196.548C24.8125 195.787 25.226 195.084 25.8877 194.72L44.373 184.497C44.7204 184.307 45.1009 184.216 45.4896 184.216C45.8783 184.216 46.2588 184.315 46.6061 184.497L65.0915 194.728C65.7531 195.092 66.1667 195.795 66.1667 196.556V232.89C66.1667 234.313 66.9193 235.628 68.1517 236.339L87.9851 247.86C88.6054 248.216 89.3663 248.216 89.9867 247.869C90.5987 247.505 90.9792 246.843 90.9792 246.132V184.398C90.9792 182.661 90.0363 181.065 88.5227 180.23Z" fill="#37474F"/>
</g>
<defs>
<clipPath id="clip0_24_162">
<rect width="397" height="397" fill="white"/>
</clipPath>
</defs>
</svg>
