<svg width="157" height="157" viewBox="0 0 157 157" fill="none" xmlns="http://www.w3.org/2000/svg">
<path d="M69.3286 40.1529L47.0738 28.9209L22.6407 41.1113L45.5038 52.5886L69.3286 40.1529Z" fill="#00ACC1"/>
<path d="M79.5369 45.3013L102.871 57.0861L78.6603 69.2405L55.7645 57.7435L79.5369 45.3013Z" fill="#00ACC1"/>
<path d="M110.705 29.0874L134.68 41.111L113.233 51.8753L89.8498 40.0807L110.705 29.0874Z" fill="#00ACC1"/>
<path d="M100.382 23.91L78.7976 13.0835L57.4489 23.7399L79.6906 34.9556L100.382 23.91Z" fill="#00ACC1"/>
<path d="M83.5109 116.85V146.304L109.655 133.254L109.632 103.79L83.5109 116.85Z" fill="#00ACC1"/>
<path d="M109.619 93.5035L109.589 64.3506L83.5109 77.3129V106.479L109.619 93.5035Z" fill="#00ACC1"/>
<path d="M141.009 88.0444V117.61L118.705 128.737L118.689 99.3059L141.009 88.0444Z" fill="#00ACC1"/>
<path d="M141.009 77.702V48.729L118.663 59.8368L118.682 89.0486L141.009 77.702Z" fill="#00ACC1"/>
<path d="M74.2806 77.3126L56.6705 68.4552V106.721C56.6705 106.721 35.1288 60.8897 33.1368 56.775C32.8784 56.2419 31.8252 55.6597 31.5538 55.5157C27.6713 53.4878 16.3542 47.7573 16.3542 47.7573V115.385L32.0117 123.778V88.4138C32.0117 88.4138 53.3211 129.365 53.5403 129.813C53.7594 130.261 55.8888 134.572 58.1783 136.089C61.2169 138.111 74.2676 145.954 74.2676 145.954L74.2806 77.3126Z" fill="#448AFF"/>
</svg>
