<svg width="206" height="206" viewBox="0 0 206 206" fill="none" xmlns="http://www.w3.org/2000/svg">
<path opacity="0.3" d="M103 206C138.553 206 167.375 201.677 167.375 196.344C167.375 191.011 138.553 186.688 103 186.688C67.4467 186.688 38.625 191.011 38.625 196.344C38.625 201.677 67.4467 206 103 206Z" fill="black"/>
<path d="M115.875 25.75H90.125C77.6813 25.75 67.5938 35.8376 67.5938 48.2812V51.5C67.5938 55.0567 70.4745 57.9375 74.0312 57.9375H96.5625C100.119 57.9375 103 60.8183 103 64.375C103 67.9317 100.119 70.8125 96.5625 70.8125H45.0625C34.3956 70.8125 25.75 79.4581 25.75 90.125V115.875C25.75 126.542 34.3956 135.188 45.0625 135.188H67.5938V119.094C67.5938 110.207 74.8005 103 83.6875 103H122.312C131.199 103 138.406 95.7932 138.406 86.9062V48.2812C138.406 35.8376 128.319 25.75 115.875 25.75Z" fill="#37D0EE"/>
<path d="M37.0156 98.1719V90.125C37.0156 85.6863 40.6271 82.0781 45.0625 82.0781" stroke="#F2F2F2" stroke-width="4.6875" stroke-miterlimit="10" stroke-linecap="round" stroke-linejoin="round"/>
<path opacity="0.3" d="M74.0312 70.8125H45.0625C34.3956 70.8125 25.75 79.4581 25.75 90.125V115.875C25.75 118.096 26.1427 120.217 26.8315 122.203C35.2067 121.637 41.8438 114.736 41.8438 106.219V90.125C41.8438 88.3482 43.289 86.9062 45.0625 86.9062H57.9375C66.8245 86.9062 74.0312 79.7027 74.0312 70.8125Z" fill="white"/>
<path d="M160.938 70.8125H138.406V86.9062C138.406 95.7932 131.199 103 122.312 103H83.6875C74.8005 103 67.5938 110.207 67.5938 119.094V157.719C67.5938 170.162 77.6813 180.25 90.125 180.25H115.875C128.319 180.25 138.406 170.162 138.406 157.719V154.5C138.406 150.943 135.525 148.062 131.969 148.062H109.438C105.881 148.062 103 145.182 103 141.625C103 138.068 105.881 135.188 109.438 135.188H160.938C171.604 135.188 180.25 126.542 180.25 115.875V90.125C180.25 79.4581 171.604 70.8125 160.938 70.8125Z" fill="#FFCE29"/>
<path d="M90.125 48.2812C93.6803 48.2812 96.5625 45.3991 96.5625 41.8438C96.5625 38.2884 93.6803 35.4062 90.125 35.4062C86.5697 35.4062 83.6875 38.2884 83.6875 41.8438C83.6875 45.3991 86.5697 48.2812 90.125 48.2812Z" fill="#9C34C2"/>
<path d="M115.875 170.594C119.43 170.594 122.312 167.712 122.312 164.156C122.312 160.601 119.43 157.719 115.875 157.719C112.32 157.719 109.438 160.601 109.438 164.156C109.438 167.712 112.32 170.594 115.875 170.594Z" fill="#9C34C2"/>
<path opacity="0.15" d="M131.969 135.187H160.938C171.604 135.187 180.25 126.542 180.25 115.875V90.1249C180.25 87.904 179.857 85.7828 179.169 83.7969C170.793 84.3634 164.156 91.2644 164.156 99.7812V115.875C164.156 117.652 162.711 119.094 160.938 119.094H148.062C139.176 119.094 131.969 126.297 131.969 135.187Z" fill="black"/>
</svg>
