<svg width="163" height="163" viewBox="0 0 163 163" fill="none" xmlns="http://www.w3.org/2000/svg">
<g clip-path="url(#clip0_24_80)">
<path d="M81.5 32.6135C59.7667 32.6135 46.1833 43.4768 40.75 65.2033C48.9 54.3401 58.4083 50.2685 69.275 52.9817C75.4758 54.5302 79.9073 59.0297 84.8143 64.008C92.8013 72.1139 102.048 81.4999 122.25 81.4999C143.983 81.4999 157.567 70.6367 163 48.9067C154.85 59.77 145.342 63.845 134.475 61.1317C128.278 59.5832 123.846 55.0838 118.939 50.1055C110.949 41.9962 101.698 32.6135 81.5 32.6135ZM40.75 81.4999C19.0167 81.4999 5.43333 92.3632 0 114.093C8.15 103.23 17.6583 99.1549 28.525 101.872C34.7224 103.423 39.154 107.92 44.0609 112.894C52.0513 121.004 61.3016 130.39 81.5 130.39C103.233 130.39 116.817 119.526 122.25 97.7965C114.1 108.66 104.592 112.735 93.725 110.018C87.5242 108.47 83.0926 103.97 78.1857 98.9953C70.1987 90.886 60.9518 81.4999 40.75 81.4999Z" fill="#00ACC1"/>
</g>
<defs>
<clipPath id="clip0_24_80">
<rect width="163" height="163" fill="white"/>
</clipPath>
</defs>
</svg>
